M48
; DRILL file {KiCad 8.0.6} date 2025-09-05T14:45:02+0200
; FORMAT={-:-/ absolute / inch / decimal}
; #@! TF.CreationDate,2025-09-05T14:45:02+02:00
; #@! TF.GenerationSoftware,Kicad,Pcbnew,8.0.6
; #@! TF.FileFunction,Plated,1,2,PTH
FMAT,2
INCH
; #@! TA.AperFunction,Plated,PTH,ViaDrill
T1C0.0118
; #@! TA.AperFunction,Plated,PTH,ComponentDrill
T2C0.0394
; #@! TA.AperFunction,Plated,PTH,ComponentDrill
T3C0.0433
%
G90
G05
T1
X1.5748Y-1.0638
X1.5748Y-1.6339
X1.5748Y-2.3425
X1.5748Y-2.9331
X1.6339Y-2.0276
X1.6732Y-1.2598
X1.6732Y-2.8937
X1.7126Y-1.2598
X1.7126Y-2.8543
X1.752Y-0.9843
X1.7913Y-2.4213
X1.8504Y-2.8543
X1.9488Y-2.8937
X2.0472Y-2.126
X2.0472Y-2.9331
X2.1063Y-1.5362
X2.1063Y-2.9724
X2.2244Y-2.8346
X2.2638Y-2.0669
T2
X0.8024Y-0.7874
X0.8661Y-2.1063
X0.8661Y-2.2063
X0.9024Y-0.7874
X1.0024Y-0.7874
X1.1024Y-0.7874
X1.1669Y-1.0362
X1.1669Y-1.1362
X1.1669Y-1.2362
X1.1669Y-1.3362
X1.1669Y-1.4362
X1.1669Y-1.5362
X1.1669Y-1.6362
X1.1669Y-1.7362
X1.1669Y-1.8362
X1.1669Y-1.9362
X1.1669Y-2.0362
X1.1669Y-2.1362
X1.1669Y-2.2362
X1.1669Y-2.3362
X1.1669Y-2.4362
X1.1669Y-2.5362
X1.1669Y-2.6362
X1.1669Y-2.7362
X1.1669Y-2.8362
X1.2024Y-0.7874
X1.3024Y-0.7874
X1.378Y-3.0906
X1.4024Y-0.7874
X1.4622Y-1.0362
X1.4622Y-1.1362
X1.4622Y-1.2362
X1.4622Y-1.3362
X1.4622Y-1.4362
X1.4622Y-1.5362
X1.4622Y-1.6362
X1.4622Y-1.7362
X1.4622Y-1.8362
X1.4622Y-1.9362
X1.4622Y-2.0362
X1.4622Y-2.1362
X1.4622Y-2.2362
X1.4622Y-2.3362
X1.4622Y-2.4362
X1.4622Y-2.5362
X1.4622Y-2.6362
X1.4622Y-2.7362
X1.4622Y-2.8362
X1.5024Y-0.7874
X1.6024Y-0.7874
X1.7024Y-0.7874
X1.7488Y-3.0906
X1.8488Y-3.0906
X1.9488Y-0.7874
X1.9488Y-3.0906
X2.0488Y-0.7874
X2.0488Y-3.0906
X2.2819Y-3.0906
X2.3622Y-1.0362
X2.3622Y-1.1362
X2.3622Y-1.2362
X2.3622Y-1.3362
X2.3622Y-1.4362
X2.3622Y-1.5362
X2.3622Y-1.6362
X2.3622Y-1.7362
X2.3622Y-1.8362
X2.3622Y-1.9362
X2.3622Y-2.0362
X2.3622Y-2.1362
X2.3622Y-2.2362
X2.3622Y-2.3362
X2.3622Y-2.4362
X2.3622Y-2.5362
X2.3622Y-2.6362
X2.3622Y-2.7362
X2.3622Y-2.8362
X2.3819Y-3.0906
X2.4819Y-3.0906
X2.6575Y-1.0362
X2.6575Y-1.1362
X2.6575Y-1.2362
X2.6575Y-1.3362
X2.6575Y-1.4362
X2.6575Y-1.5362
X2.6575Y-1.6362
X2.6575Y-1.7362
X2.6575Y-1.8362
X2.6575Y-1.9362
X2.6575Y-2.0362
X2.6575Y-2.1362
X2.6575Y-2.2362
X2.6575Y-2.3362
X2.6575Y-2.4362
X2.6575Y-2.5362
X2.6575Y-2.6362
X2.6575Y-2.7362
X2.6575Y-2.8362
T3
X1.0024Y-3.1693
X1.1024Y-3.1693
M30
