%TF.GenerationSoftware,KiCad,Pcbnew,8.0.6*%
%TF.CreationDate,2025-09-05T14:44:53+02:00*%
%TF.ProjectId,wro-nyak,77726f2d-6e79-4616-9b2e-6b696361645f,rev?*%
%TF.SameCoordinates,Original*%
%TF.FileFunction,Legend,Top*%
%TF.FilePolarity,Positive*%
%FSLAX46Y46*%
G04 Gerber Fmt 4.6, Leading zero omitted, Abs format (unit mm)*
G04 Created by KiCad (PCBNEW 8.0.6) date 2025-09-05 14:44:53*
%MOMM*%
%LPD*%
G01*
G04 APERTURE LIST*
%ADD10C,0.200000*%
%ADD11C,0.100000*%
%ADD12C,0.300000*%
%ADD13C,0.150000*%
%ADD14C,0.120000*%
%ADD15C,0.000000*%
G04 APERTURE END LIST*
D10*
X25367219Y-58058898D02*
X24891028Y-58392231D01*
X25367219Y-58630326D02*
X24367219Y-58630326D01*
X24367219Y-58630326D02*
X24367219Y-58249374D01*
X24367219Y-58249374D02*
X24414838Y-58154136D01*
X24414838Y-58154136D02*
X24462457Y-58106517D01*
X24462457Y-58106517D02*
X24557695Y-58058898D01*
X24557695Y-58058898D02*
X24700552Y-58058898D01*
X24700552Y-58058898D02*
X24795790Y-58106517D01*
X24795790Y-58106517D02*
X24843409Y-58154136D01*
X24843409Y-58154136D02*
X24891028Y-58249374D01*
X24891028Y-58249374D02*
X24891028Y-58630326D01*
X25081504Y-57677945D02*
X25081504Y-57201755D01*
X25367219Y-57773183D02*
X24367219Y-57439850D01*
X24367219Y-57439850D02*
X25367219Y-57106517D01*
X25319600Y-56820802D02*
X25367219Y-56677945D01*
X25367219Y-56677945D02*
X25367219Y-56439850D01*
X25367219Y-56439850D02*
X25319600Y-56344612D01*
X25319600Y-56344612D02*
X25271980Y-56296993D01*
X25271980Y-56296993D02*
X25176742Y-56249374D01*
X25176742Y-56249374D02*
X25081504Y-56249374D01*
X25081504Y-56249374D02*
X24986266Y-56296993D01*
X24986266Y-56296993D02*
X24938647Y-56344612D01*
X24938647Y-56344612D02*
X24891028Y-56439850D01*
X24891028Y-56439850D02*
X24843409Y-56630326D01*
X24843409Y-56630326D02*
X24795790Y-56725564D01*
X24795790Y-56725564D02*
X24748171Y-56773183D01*
X24748171Y-56773183D02*
X24652933Y-56820802D01*
X24652933Y-56820802D02*
X24557695Y-56820802D01*
X24557695Y-56820802D02*
X24462457Y-56773183D01*
X24462457Y-56773183D02*
X24414838Y-56725564D01*
X24414838Y-56725564D02*
X24367219Y-56630326D01*
X24367219Y-56630326D02*
X24367219Y-56392231D01*
X24367219Y-56392231D02*
X24414838Y-56249374D01*
X25367219Y-55820802D02*
X24367219Y-55820802D01*
X24367219Y-55820802D02*
X24367219Y-55439850D01*
X24367219Y-55439850D02*
X24414838Y-55344612D01*
X24414838Y-55344612D02*
X24462457Y-55296993D01*
X24462457Y-55296993D02*
X24557695Y-55249374D01*
X24557695Y-55249374D02*
X24700552Y-55249374D01*
X24700552Y-55249374D02*
X24795790Y-55296993D01*
X24795790Y-55296993D02*
X24843409Y-55344612D01*
X24843409Y-55344612D02*
X24891028Y-55439850D01*
X24891028Y-55439850D02*
X24891028Y-55820802D01*
X24843409Y-54487469D02*
X24891028Y-54344612D01*
X24891028Y-54344612D02*
X24938647Y-54296993D01*
X24938647Y-54296993D02*
X25033885Y-54249374D01*
X25033885Y-54249374D02*
X25176742Y-54249374D01*
X25176742Y-54249374D02*
X25271980Y-54296993D01*
X25271980Y-54296993D02*
X25319600Y-54344612D01*
X25319600Y-54344612D02*
X25367219Y-54439850D01*
X25367219Y-54439850D02*
X25367219Y-54820802D01*
X25367219Y-54820802D02*
X24367219Y-54820802D01*
X24367219Y-54820802D02*
X24367219Y-54487469D01*
X24367219Y-54487469D02*
X24414838Y-54392231D01*
X24414838Y-54392231D02*
X24462457Y-54344612D01*
X24462457Y-54344612D02*
X24557695Y-54296993D01*
X24557695Y-54296993D02*
X24652933Y-54296993D01*
X24652933Y-54296993D02*
X24748171Y-54344612D01*
X24748171Y-54344612D02*
X24795790Y-54392231D01*
X24795790Y-54392231D02*
X24843409Y-54487469D01*
X24843409Y-54487469D02*
X24843409Y-54820802D01*
X24843409Y-53820802D02*
X24843409Y-53487469D01*
X25367219Y-53344612D02*
X25367219Y-53820802D01*
X25367219Y-53820802D02*
X24367219Y-53820802D01*
X24367219Y-53820802D02*
X24367219Y-53344612D01*
X25367219Y-52344612D02*
X24891028Y-52677945D01*
X25367219Y-52916040D02*
X24367219Y-52916040D01*
X24367219Y-52916040D02*
X24367219Y-52535088D01*
X24367219Y-52535088D02*
X24414838Y-52439850D01*
X24414838Y-52439850D02*
X24462457Y-52392231D01*
X24462457Y-52392231D02*
X24557695Y-52344612D01*
X24557695Y-52344612D02*
X24700552Y-52344612D01*
X24700552Y-52344612D02*
X24795790Y-52392231D01*
X24795790Y-52392231D02*
X24843409Y-52439850D01*
X24843409Y-52439850D02*
X24891028Y-52535088D01*
X24891028Y-52535088D02*
X24891028Y-52916040D01*
X25367219Y-51344612D02*
X24891028Y-51677945D01*
X25367219Y-51916040D02*
X24367219Y-51916040D01*
X24367219Y-51916040D02*
X24367219Y-51535088D01*
X24367219Y-51535088D02*
X24414838Y-51439850D01*
X24414838Y-51439850D02*
X24462457Y-51392231D01*
X24462457Y-51392231D02*
X24557695Y-51344612D01*
X24557695Y-51344612D02*
X24700552Y-51344612D01*
X24700552Y-51344612D02*
X24795790Y-51392231D01*
X24795790Y-51392231D02*
X24843409Y-51439850D01*
X24843409Y-51439850D02*
X24891028Y-51535088D01*
X24891028Y-51535088D02*
X24891028Y-51916040D01*
X24891028Y-50725564D02*
X25367219Y-50725564D01*
X24367219Y-51058897D02*
X24891028Y-50725564D01*
X24891028Y-50725564D02*
X24367219Y-50392231D01*
X54843409Y-83630326D02*
X54843409Y-83296993D01*
X55367219Y-83154136D02*
X55367219Y-83630326D01*
X55367219Y-83630326D02*
X54367219Y-83630326D01*
X54367219Y-83630326D02*
X54367219Y-83154136D01*
X55367219Y-82725564D02*
X54367219Y-82725564D01*
X54367219Y-82725564D02*
X55367219Y-82154136D01*
X55367219Y-82154136D02*
X54367219Y-82154136D01*
X55271980Y-81106517D02*
X55319600Y-81154136D01*
X55319600Y-81154136D02*
X55367219Y-81296993D01*
X55367219Y-81296993D02*
X55367219Y-81392231D01*
X55367219Y-81392231D02*
X55319600Y-81535088D01*
X55319600Y-81535088D02*
X55224361Y-81630326D01*
X55224361Y-81630326D02*
X55129123Y-81677945D01*
X55129123Y-81677945D02*
X54938647Y-81725564D01*
X54938647Y-81725564D02*
X54795790Y-81725564D01*
X54795790Y-81725564D02*
X54605314Y-81677945D01*
X54605314Y-81677945D02*
X54510076Y-81630326D01*
X54510076Y-81630326D02*
X54414838Y-81535088D01*
X54414838Y-81535088D02*
X54367219Y-81392231D01*
X54367219Y-81392231D02*
X54367219Y-81296993D01*
X54367219Y-81296993D02*
X54414838Y-81154136D01*
X54414838Y-81154136D02*
X54462457Y-81106517D01*
X54367219Y-80487469D02*
X54367219Y-80296993D01*
X54367219Y-80296993D02*
X54414838Y-80201755D01*
X54414838Y-80201755D02*
X54510076Y-80106517D01*
X54510076Y-80106517D02*
X54700552Y-80058898D01*
X54700552Y-80058898D02*
X55033885Y-80058898D01*
X55033885Y-80058898D02*
X55224361Y-80106517D01*
X55224361Y-80106517D02*
X55319600Y-80201755D01*
X55319600Y-80201755D02*
X55367219Y-80296993D01*
X55367219Y-80296993D02*
X55367219Y-80487469D01*
X55367219Y-80487469D02*
X55319600Y-80582707D01*
X55319600Y-80582707D02*
X55224361Y-80677945D01*
X55224361Y-80677945D02*
X55033885Y-80725564D01*
X55033885Y-80725564D02*
X54700552Y-80725564D01*
X54700552Y-80725564D02*
X54510076Y-80677945D01*
X54510076Y-80677945D02*
X54414838Y-80582707D01*
X54414838Y-80582707D02*
X54367219Y-80487469D01*
X55367219Y-79630326D02*
X54367219Y-79630326D01*
X54367219Y-79630326D02*
X54367219Y-79392231D01*
X54367219Y-79392231D02*
X54414838Y-79249374D01*
X54414838Y-79249374D02*
X54510076Y-79154136D01*
X54510076Y-79154136D02*
X54605314Y-79106517D01*
X54605314Y-79106517D02*
X54795790Y-79058898D01*
X54795790Y-79058898D02*
X54938647Y-79058898D01*
X54938647Y-79058898D02*
X55129123Y-79106517D01*
X55129123Y-79106517D02*
X55224361Y-79154136D01*
X55224361Y-79154136D02*
X55319600Y-79249374D01*
X55319600Y-79249374D02*
X55367219Y-79392231D01*
X55367219Y-79392231D02*
X55367219Y-79630326D01*
X54843409Y-78630326D02*
X54843409Y-78296993D01*
X55367219Y-78154136D02*
X55367219Y-78630326D01*
X55367219Y-78630326D02*
X54367219Y-78630326D01*
X54367219Y-78630326D02*
X54367219Y-78154136D01*
X55367219Y-77154136D02*
X54891028Y-77487469D01*
X55367219Y-77725564D02*
X54367219Y-77725564D01*
X54367219Y-77725564D02*
X54367219Y-77344612D01*
X54367219Y-77344612D02*
X54414838Y-77249374D01*
X54414838Y-77249374D02*
X54462457Y-77201755D01*
X54462457Y-77201755D02*
X54557695Y-77154136D01*
X54557695Y-77154136D02*
X54700552Y-77154136D01*
X54700552Y-77154136D02*
X54795790Y-77201755D01*
X54795790Y-77201755D02*
X54843409Y-77249374D01*
X54843409Y-77249374D02*
X54891028Y-77344612D01*
X54891028Y-77344612D02*
X54891028Y-77725564D01*
D11*
X27827693Y-85420038D02*
X27732455Y-85372419D01*
X27732455Y-85372419D02*
X27589598Y-85372419D01*
X27589598Y-85372419D02*
X27446741Y-85420038D01*
X27446741Y-85420038D02*
X27351503Y-85515276D01*
X27351503Y-85515276D02*
X27303884Y-85610514D01*
X27303884Y-85610514D02*
X27256265Y-85800990D01*
X27256265Y-85800990D02*
X27256265Y-85943847D01*
X27256265Y-85943847D02*
X27303884Y-86134323D01*
X27303884Y-86134323D02*
X27351503Y-86229561D01*
X27351503Y-86229561D02*
X27446741Y-86324800D01*
X27446741Y-86324800D02*
X27589598Y-86372419D01*
X27589598Y-86372419D02*
X27684836Y-86372419D01*
X27684836Y-86372419D02*
X27827693Y-86324800D01*
X27827693Y-86324800D02*
X27875312Y-86277180D01*
X27875312Y-86277180D02*
X27875312Y-85943847D01*
X27875312Y-85943847D02*
X27684836Y-85943847D01*
X28303884Y-86372419D02*
X28303884Y-85372419D01*
X28303884Y-85372419D02*
X28875312Y-86372419D01*
X28875312Y-86372419D02*
X28875312Y-85372419D01*
X29351503Y-86372419D02*
X29351503Y-85372419D01*
X29351503Y-85372419D02*
X29589598Y-85372419D01*
X29589598Y-85372419D02*
X29732455Y-85420038D01*
X29732455Y-85420038D02*
X29827693Y-85515276D01*
X29827693Y-85515276D02*
X29875312Y-85610514D01*
X29875312Y-85610514D02*
X29922931Y-85800990D01*
X29922931Y-85800990D02*
X29922931Y-85943847D01*
X29922931Y-85943847D02*
X29875312Y-86134323D01*
X29875312Y-86134323D02*
X29827693Y-86229561D01*
X29827693Y-86229561D02*
X29732455Y-86324800D01*
X29732455Y-86324800D02*
X29589598Y-86372419D01*
X29589598Y-86372419D02*
X29351503Y-86372419D01*
D10*
G36*
X42710048Y-69681981D02*
G01*
X42710048Y-69577445D01*
X42802689Y-69624214D01*
X42894310Y-69673317D01*
X42938660Y-69699567D01*
X43020359Y-69756842D01*
X43102951Y-69820475D01*
X43134542Y-69845624D01*
X43134542Y-67820362D01*
X43273272Y-67820362D01*
X43273272Y-69845624D01*
X43355521Y-69775587D01*
X43440612Y-69715608D01*
X43537951Y-69656843D01*
X43631134Y-69607441D01*
X43698255Y-69575003D01*
X43698255Y-69680516D01*
X43616259Y-69755709D01*
X43543380Y-69826134D01*
X43471252Y-69900781D01*
X43404341Y-69977314D01*
X43397836Y-69985331D01*
X43337443Y-70066131D01*
X43284492Y-70148554D01*
X43234841Y-70241092D01*
X43230774Y-70249602D01*
X43167759Y-70249602D01*
X43122170Y-70158812D01*
X43067224Y-70071847D01*
X43012909Y-69998032D01*
X42947084Y-69919116D01*
X42875857Y-69842416D01*
X42803715Y-69770245D01*
X42722411Y-69693352D01*
X42710048Y-69681981D01*
G37*
G36*
X44881367Y-69660000D02*
G01*
X44881367Y-67627899D01*
X46374668Y-67627899D01*
X46374668Y-67971793D01*
X45288276Y-67971793D01*
X45288276Y-68409476D01*
X46299441Y-68409476D01*
X46299441Y-68753370D01*
X45288276Y-68753370D01*
X45288276Y-69316106D01*
X46413258Y-69316106D01*
X46413258Y-69660000D01*
X44881367Y-69660000D01*
G37*
G36*
X46644312Y-69003475D02*
G01*
X47039986Y-68972212D01*
X47065840Y-69072907D01*
X47108163Y-69165758D01*
X47171247Y-69244752D01*
X47184577Y-69256510D01*
X47268809Y-69308239D01*
X47371049Y-69338496D01*
X47479623Y-69347369D01*
X47582431Y-69340916D01*
X47678716Y-69318610D01*
X47769322Y-69270810D01*
X47775645Y-69265792D01*
X47843766Y-69188748D01*
X47874420Y-69094581D01*
X47875296Y-69074305D01*
X47849655Y-68977216D01*
X47833286Y-68954626D01*
X47751431Y-68895341D01*
X47687229Y-68868653D01*
X47589522Y-68838760D01*
X47489878Y-68811445D01*
X47392449Y-68785820D01*
X47361409Y-68777794D01*
X47264044Y-68750808D01*
X47159767Y-68716095D01*
X47069195Y-68678841D01*
X46980848Y-68632165D01*
X46902721Y-68574584D01*
X46830393Y-68497538D01*
X46775829Y-68413432D01*
X46739031Y-68322267D01*
X46719997Y-68224042D01*
X46717096Y-68164745D01*
X46727371Y-68060316D01*
X46758194Y-67960621D01*
X46804047Y-67874096D01*
X46866186Y-67795566D01*
X46943304Y-67729725D01*
X47035400Y-67676574D01*
X47055617Y-67667466D01*
X47153548Y-67633227D01*
X47249551Y-67612199D01*
X47353980Y-67600025D01*
X47452267Y-67596636D01*
X47566146Y-67600798D01*
X47670865Y-67613285D01*
X47766425Y-67634095D01*
X47869007Y-67670056D01*
X47958400Y-67718004D01*
X48022819Y-67767117D01*
X48098089Y-67847149D01*
X48155922Y-67938074D01*
X48196317Y-68039891D01*
X48217062Y-68135833D01*
X48224563Y-68221898D01*
X47817655Y-68221898D01*
X47789788Y-68121308D01*
X47735919Y-68033993D01*
X47705792Y-68006475D01*
X47614109Y-67961395D01*
X47509329Y-67942848D01*
X47447871Y-67940530D01*
X47344793Y-67947495D01*
X47248598Y-67971244D01*
X47170411Y-68011849D01*
X47111032Y-68094006D01*
X47105931Y-68134947D01*
X47140003Y-68228462D01*
X47166503Y-68254626D01*
X47255003Y-68303559D01*
X47348426Y-68337631D01*
X47452761Y-68368395D01*
X47540195Y-68390914D01*
X47646126Y-68418128D01*
X47741169Y-68445548D01*
X47838291Y-68477798D01*
X47931141Y-68515000D01*
X47979344Y-68538436D01*
X48062129Y-68590844D01*
X48139197Y-68660944D01*
X48201605Y-68744089D01*
X48247493Y-68840972D01*
X48272681Y-68941569D01*
X48281890Y-69042304D01*
X48282205Y-69066001D01*
X48272807Y-69172542D01*
X48244614Y-69274790D01*
X48197626Y-69372745D01*
X48185973Y-69391821D01*
X48125544Y-69471093D01*
X48052519Y-69538000D01*
X47966897Y-69592543D01*
X47913886Y-69617501D01*
X47820555Y-69649772D01*
X47716416Y-69672822D01*
X47616429Y-69685428D01*
X47508167Y-69690974D01*
X47475715Y-69691263D01*
X47360670Y-69686981D01*
X47254284Y-69674137D01*
X47156556Y-69652730D01*
X47050711Y-69615739D01*
X46957334Y-69566417D01*
X46889043Y-69515896D01*
X46818078Y-69444301D01*
X46758686Y-69361405D01*
X46710870Y-69267209D01*
X46674629Y-69161714D01*
X46653269Y-69065168D01*
X46644312Y-69003475D01*
G37*
G36*
X49375709Y-67628638D02*
G01*
X49490656Y-67631478D01*
X49601753Y-67637482D01*
X49708185Y-67649460D01*
X49749616Y-67658185D01*
X49842678Y-67691888D01*
X49926776Y-67742437D01*
X50001909Y-67809834D01*
X50039776Y-67854556D01*
X50096212Y-67946730D01*
X50130872Y-68040405D01*
X50150938Y-68145131D01*
X50156524Y-68245833D01*
X50151192Y-68345061D01*
X50132759Y-68444437D01*
X50097276Y-68540528D01*
X50089113Y-68556510D01*
X50033472Y-68643407D01*
X49961721Y-68720337D01*
X49918143Y-68754347D01*
X49833357Y-68804709D01*
X49740605Y-68841094D01*
X49707117Y-68849602D01*
X49603400Y-68864800D01*
X49502085Y-68872906D01*
X49400061Y-68877043D01*
X49285554Y-68878422D01*
X49020307Y-68878422D01*
X49020307Y-69660000D01*
X48613398Y-69660000D01*
X48613398Y-68534528D01*
X49020307Y-68534528D01*
X49243056Y-68534528D01*
X49353271Y-68532605D01*
X49453468Y-68525843D01*
X49553721Y-68507480D01*
X49564480Y-68503754D01*
X49652102Y-68450936D01*
X49691486Y-68406057D01*
X49730946Y-68314618D01*
X49737404Y-68251695D01*
X49721284Y-68153143D01*
X49672923Y-68073398D01*
X49594625Y-68013549D01*
X49509281Y-67985471D01*
X49408738Y-67975653D01*
X49305813Y-67972447D01*
X49216678Y-67971793D01*
X49020307Y-67971793D01*
X49020307Y-68534528D01*
X48613398Y-68534528D01*
X48613398Y-67627899D01*
X49266015Y-67627899D01*
X49375709Y-67628638D01*
G37*
G36*
X50380739Y-69083098D02*
G01*
X50754431Y-69034738D01*
X50773956Y-69130755D01*
X50815339Y-69222500D01*
X50850662Y-69267257D01*
X50931234Y-69324759D01*
X51026403Y-69347056D01*
X51040195Y-69347369D01*
X51137287Y-69329884D01*
X51219981Y-69277431D01*
X51240963Y-69256022D01*
X51294097Y-69171241D01*
X51319101Y-69074235D01*
X51323028Y-69009337D01*
X51311968Y-68907945D01*
X51275026Y-68817329D01*
X51244382Y-68776817D01*
X51163596Y-68715108D01*
X51067783Y-68691180D01*
X51053872Y-68690844D01*
X50955540Y-68701004D01*
X50876552Y-68719665D01*
X50919050Y-68409476D01*
X51018022Y-68403966D01*
X51112216Y-68376320D01*
X51157920Y-68347927D01*
X51219836Y-68271723D01*
X51240474Y-68174026D01*
X51219120Y-68077652D01*
X51179902Y-68026992D01*
X51088960Y-67979555D01*
X51019190Y-67971793D01*
X50922345Y-67989853D01*
X50850174Y-68035785D01*
X50791395Y-68119938D01*
X50765177Y-68221898D01*
X50409560Y-68165722D01*
X50433418Y-68066709D01*
X50466906Y-67970653D01*
X50512228Y-67881961D01*
X50521423Y-67867745D01*
X50585789Y-67790580D01*
X50666778Y-67726878D01*
X50730006Y-67691891D01*
X50826113Y-67655458D01*
X50929723Y-67634148D01*
X51030425Y-67627899D01*
X51133070Y-67634133D01*
X51242795Y-67657164D01*
X51341720Y-67697165D01*
X51429847Y-67754136D01*
X51486182Y-67805219D01*
X51554661Y-67889841D01*
X51600728Y-67980490D01*
X51624385Y-68077168D01*
X51627843Y-68133482D01*
X51613982Y-68241937D01*
X51572398Y-68340342D01*
X51503092Y-68428695D01*
X51421622Y-68496427D01*
X51338171Y-68547229D01*
X51439475Y-68580250D01*
X51527230Y-68631684D01*
X51601438Y-68701531D01*
X51614654Y-68717711D01*
X51669523Y-68805533D01*
X51704070Y-68904137D01*
X51717787Y-69002098D01*
X51718702Y-69036692D01*
X51711884Y-69135725D01*
X51686696Y-69244144D01*
X51642948Y-69344896D01*
X51580641Y-69437981D01*
X51524773Y-69499776D01*
X51448884Y-69564852D01*
X51351882Y-69623756D01*
X51245763Y-69664335D01*
X51147549Y-69684531D01*
X51042637Y-69691263D01*
X50943501Y-69685355D01*
X50836091Y-69663530D01*
X50737563Y-69625622D01*
X50647917Y-69571633D01*
X50589323Y-69523224D01*
X50517899Y-69444561D01*
X50460921Y-69356034D01*
X50418389Y-69257642D01*
X50390303Y-69149387D01*
X50380739Y-69083098D01*
G37*
G36*
X53255478Y-69284842D02*
G01*
X53255478Y-69660000D01*
X51901884Y-69660000D01*
X51918370Y-69560471D01*
X51945847Y-69463628D01*
X51984316Y-69369473D01*
X52033775Y-69278004D01*
X52092122Y-69193297D01*
X52158468Y-69111723D01*
X52225275Y-69037423D01*
X52302552Y-68957373D01*
X52390301Y-68871576D01*
X52468039Y-68798799D01*
X52544770Y-68727194D01*
X52623813Y-68651310D01*
X52698058Y-68576628D01*
X52765077Y-68502521D01*
X52788485Y-68472002D01*
X52837006Y-68383388D01*
X52864298Y-68288319D01*
X52868108Y-68237529D01*
X52854831Y-68136857D01*
X52807143Y-68049510D01*
X52798743Y-68040669D01*
X52710154Y-67986927D01*
X52607257Y-67971793D01*
X52504632Y-67987678D01*
X52419300Y-68039641D01*
X52414794Y-68044089D01*
X52361134Y-68132904D01*
X52337217Y-68234249D01*
X52332240Y-68284424D01*
X51947313Y-68246322D01*
X51961588Y-68147544D01*
X51988195Y-68041070D01*
X52025141Y-67947750D01*
X52081311Y-67855503D01*
X52151552Y-67781161D01*
X52162735Y-67772002D01*
X52246560Y-67715853D01*
X52339034Y-67673494D01*
X52440157Y-67644927D01*
X52549929Y-67630151D01*
X52616538Y-67627899D01*
X52723797Y-67633532D01*
X52822091Y-67650430D01*
X52925438Y-67684384D01*
X53016583Y-67733671D01*
X53084996Y-67788122D01*
X53151424Y-67861770D01*
X53207363Y-67955154D01*
X53241992Y-68058370D01*
X53254812Y-68156748D01*
X53255478Y-68186238D01*
X53248608Y-68285935D01*
X53228000Y-68382060D01*
X53206629Y-68444159D01*
X53162024Y-68537467D01*
X53107136Y-68626017D01*
X53052267Y-68700614D01*
X52983712Y-68778283D01*
X52911558Y-68850960D01*
X52832499Y-68925943D01*
X52799232Y-68956580D01*
X52725708Y-69024127D01*
X52650000Y-69095310D01*
X52578025Y-69167024D01*
X52567690Y-69178353D01*
X52507059Y-69255485D01*
X52488555Y-69284842D01*
X53255478Y-69284842D01*
G37*
G36*
X54377041Y-69681981D02*
G01*
X54377041Y-69577445D01*
X54469681Y-69624214D01*
X54561302Y-69673317D01*
X54605652Y-69699567D01*
X54687351Y-69756842D01*
X54769943Y-69820475D01*
X54801535Y-69845624D01*
X54801535Y-67820362D01*
X54940265Y-67820362D01*
X54940265Y-69845624D01*
X55022513Y-69775587D01*
X55107604Y-69715608D01*
X55204944Y-69656843D01*
X55298126Y-69607441D01*
X55365247Y-69575003D01*
X55365247Y-69680516D01*
X55283252Y-69755709D01*
X55210372Y-69826134D01*
X55138244Y-69900781D01*
X55071333Y-69977314D01*
X55064829Y-69985331D01*
X55004436Y-70066131D01*
X54951485Y-70148554D01*
X54901834Y-70241092D01*
X54897766Y-70249602D01*
X54834752Y-70249602D01*
X54789162Y-70158812D01*
X54734217Y-70071847D01*
X54679902Y-69998032D01*
X54614076Y-69919116D01*
X54542849Y-69842416D01*
X54470708Y-69770245D01*
X54389404Y-69693352D01*
X54377041Y-69681981D01*
G37*
X24369673Y-76367219D02*
X24369673Y-75367219D01*
X24369673Y-75367219D02*
X24750625Y-75367219D01*
X24750625Y-75367219D02*
X24845863Y-75414838D01*
X24845863Y-75414838D02*
X24893482Y-75462457D01*
X24893482Y-75462457D02*
X24941101Y-75557695D01*
X24941101Y-75557695D02*
X24941101Y-75700552D01*
X24941101Y-75700552D02*
X24893482Y-75795790D01*
X24893482Y-75795790D02*
X24845863Y-75843409D01*
X24845863Y-75843409D02*
X24750625Y-75891028D01*
X24750625Y-75891028D02*
X24369673Y-75891028D01*
X25560149Y-75367219D02*
X25750625Y-75367219D01*
X25750625Y-75367219D02*
X25845863Y-75414838D01*
X25845863Y-75414838D02*
X25941101Y-75510076D01*
X25941101Y-75510076D02*
X25988720Y-75700552D01*
X25988720Y-75700552D02*
X25988720Y-76033885D01*
X25988720Y-76033885D02*
X25941101Y-76224361D01*
X25941101Y-76224361D02*
X25845863Y-76319600D01*
X25845863Y-76319600D02*
X25750625Y-76367219D01*
X25750625Y-76367219D02*
X25560149Y-76367219D01*
X25560149Y-76367219D02*
X25464911Y-76319600D01*
X25464911Y-76319600D02*
X25369673Y-76224361D01*
X25369673Y-76224361D02*
X25322054Y-76033885D01*
X25322054Y-76033885D02*
X25322054Y-75700552D01*
X25322054Y-75700552D02*
X25369673Y-75510076D01*
X25369673Y-75510076D02*
X25464911Y-75414838D01*
X25464911Y-75414838D02*
X25560149Y-75367219D01*
X26322054Y-75367219D02*
X26560149Y-76367219D01*
X26560149Y-76367219D02*
X26750625Y-75652933D01*
X26750625Y-75652933D02*
X26941101Y-76367219D01*
X26941101Y-76367219D02*
X27179197Y-75367219D01*
X27560149Y-75843409D02*
X27893482Y-75843409D01*
X28036339Y-76367219D02*
X27560149Y-76367219D01*
X27560149Y-76367219D02*
X27560149Y-75367219D01*
X27560149Y-75367219D02*
X28036339Y-75367219D01*
X29036339Y-76367219D02*
X28703006Y-75891028D01*
X28464911Y-76367219D02*
X28464911Y-75367219D01*
X28464911Y-75367219D02*
X28845863Y-75367219D01*
X28845863Y-75367219D02*
X28941101Y-75414838D01*
X28941101Y-75414838D02*
X28988720Y-75462457D01*
X28988720Y-75462457D02*
X29036339Y-75557695D01*
X29036339Y-75557695D02*
X29036339Y-75700552D01*
X29036339Y-75700552D02*
X28988720Y-75795790D01*
X28988720Y-75795790D02*
X28941101Y-75843409D01*
X28941101Y-75843409D02*
X28845863Y-75891028D01*
X28845863Y-75891028D02*
X28464911Y-75891028D01*
D11*
X23303884Y-85991466D02*
X24065789Y-85991466D01*
X23684836Y-86372419D02*
X23684836Y-85610514D01*
X25018169Y-85372419D02*
X24541979Y-85372419D01*
X24541979Y-85372419D02*
X24494360Y-85848609D01*
X24494360Y-85848609D02*
X24541979Y-85800990D01*
X24541979Y-85800990D02*
X24637217Y-85753371D01*
X24637217Y-85753371D02*
X24875312Y-85753371D01*
X24875312Y-85753371D02*
X24970550Y-85800990D01*
X24970550Y-85800990D02*
X25018169Y-85848609D01*
X25018169Y-85848609D02*
X25065788Y-85943847D01*
X25065788Y-85943847D02*
X25065788Y-86181942D01*
X25065788Y-86181942D02*
X25018169Y-86277180D01*
X25018169Y-86277180D02*
X24970550Y-86324800D01*
X24970550Y-86324800D02*
X24875312Y-86372419D01*
X24875312Y-86372419D02*
X24637217Y-86372419D01*
X24637217Y-86372419D02*
X24541979Y-86324800D01*
X24541979Y-86324800D02*
X24494360Y-86277180D01*
X25351503Y-85372419D02*
X25684836Y-86372419D01*
X25684836Y-86372419D02*
X26018169Y-85372419D01*
D12*
X36445489Y-16984885D02*
X36231203Y-16913457D01*
X36231203Y-16913457D02*
X36159774Y-16842028D01*
X36159774Y-16842028D02*
X36088346Y-16699171D01*
X36088346Y-16699171D02*
X36088346Y-16484885D01*
X36088346Y-16484885D02*
X36159774Y-16342028D01*
X36159774Y-16342028D02*
X36231203Y-16270600D01*
X36231203Y-16270600D02*
X36374060Y-16199171D01*
X36374060Y-16199171D02*
X36945489Y-16199171D01*
X36945489Y-16199171D02*
X36945489Y-17699171D01*
X36945489Y-17699171D02*
X36445489Y-17699171D01*
X36445489Y-17699171D02*
X36302632Y-17627742D01*
X36302632Y-17627742D02*
X36231203Y-17556314D01*
X36231203Y-17556314D02*
X36159774Y-17413457D01*
X36159774Y-17413457D02*
X36159774Y-17270600D01*
X36159774Y-17270600D02*
X36231203Y-17127742D01*
X36231203Y-17127742D02*
X36302632Y-17056314D01*
X36302632Y-17056314D02*
X36445489Y-16984885D01*
X36445489Y-16984885D02*
X36945489Y-16984885D01*
X35445489Y-16199171D02*
X35445489Y-17699171D01*
X35445489Y-17699171D02*
X34588346Y-16199171D01*
X34588346Y-16199171D02*
X34588346Y-17699171D01*
X33588345Y-17699171D02*
X33302631Y-17699171D01*
X33302631Y-17699171D02*
X33159774Y-17627742D01*
X33159774Y-17627742D02*
X33016917Y-17484885D01*
X33016917Y-17484885D02*
X32945488Y-17199171D01*
X32945488Y-17199171D02*
X32945488Y-16699171D01*
X32945488Y-16699171D02*
X33016917Y-16413457D01*
X33016917Y-16413457D02*
X33159774Y-16270600D01*
X33159774Y-16270600D02*
X33302631Y-16199171D01*
X33302631Y-16199171D02*
X33588345Y-16199171D01*
X33588345Y-16199171D02*
X33731203Y-16270600D01*
X33731203Y-16270600D02*
X33874060Y-16413457D01*
X33874060Y-16413457D02*
X33945488Y-16699171D01*
X33945488Y-16699171D02*
X33945488Y-17199171D01*
X33945488Y-17199171D02*
X33874060Y-17484885D01*
X33874060Y-17484885D02*
X33731203Y-17627742D01*
X33731203Y-17627742D02*
X33588345Y-17699171D01*
X32016916Y-17699171D02*
X31874059Y-17699171D01*
X31874059Y-17699171D02*
X31731202Y-17627742D01*
X31731202Y-17627742D02*
X31659774Y-17556314D01*
X31659774Y-17556314D02*
X31588345Y-17413457D01*
X31588345Y-17413457D02*
X31516916Y-17127742D01*
X31516916Y-17127742D02*
X31516916Y-16770600D01*
X31516916Y-16770600D02*
X31588345Y-16484885D01*
X31588345Y-16484885D02*
X31659774Y-16342028D01*
X31659774Y-16342028D02*
X31731202Y-16270600D01*
X31731202Y-16270600D02*
X31874059Y-16199171D01*
X31874059Y-16199171D02*
X32016916Y-16199171D01*
X32016916Y-16199171D02*
X32159774Y-16270600D01*
X32159774Y-16270600D02*
X32231202Y-16342028D01*
X32231202Y-16342028D02*
X32302631Y-16484885D01*
X32302631Y-16484885D02*
X32374059Y-16770600D01*
X32374059Y-16770600D02*
X32374059Y-17127742D01*
X32374059Y-17127742D02*
X32302631Y-17413457D01*
X32302631Y-17413457D02*
X32231202Y-17556314D01*
X32231202Y-17556314D02*
X32159774Y-17627742D01*
X32159774Y-17627742D02*
X32016916Y-17699171D01*
X30659774Y-17056314D02*
X30802631Y-17127742D01*
X30802631Y-17127742D02*
X30874060Y-17199171D01*
X30874060Y-17199171D02*
X30945488Y-17342028D01*
X30945488Y-17342028D02*
X30945488Y-17413457D01*
X30945488Y-17413457D02*
X30874060Y-17556314D01*
X30874060Y-17556314D02*
X30802631Y-17627742D01*
X30802631Y-17627742D02*
X30659774Y-17699171D01*
X30659774Y-17699171D02*
X30374060Y-17699171D01*
X30374060Y-17699171D02*
X30231203Y-17627742D01*
X30231203Y-17627742D02*
X30159774Y-17556314D01*
X30159774Y-17556314D02*
X30088345Y-17413457D01*
X30088345Y-17413457D02*
X30088345Y-17342028D01*
X30088345Y-17342028D02*
X30159774Y-17199171D01*
X30159774Y-17199171D02*
X30231203Y-17127742D01*
X30231203Y-17127742D02*
X30374060Y-17056314D01*
X30374060Y-17056314D02*
X30659774Y-17056314D01*
X30659774Y-17056314D02*
X30802631Y-16984885D01*
X30802631Y-16984885D02*
X30874060Y-16913457D01*
X30874060Y-16913457D02*
X30945488Y-16770600D01*
X30945488Y-16770600D02*
X30945488Y-16484885D01*
X30945488Y-16484885D02*
X30874060Y-16342028D01*
X30874060Y-16342028D02*
X30802631Y-16270600D01*
X30802631Y-16270600D02*
X30659774Y-16199171D01*
X30659774Y-16199171D02*
X30374060Y-16199171D01*
X30374060Y-16199171D02*
X30231203Y-16270600D01*
X30231203Y-16270600D02*
X30159774Y-16342028D01*
X30159774Y-16342028D02*
X30088345Y-16484885D01*
X30088345Y-16484885D02*
X30088345Y-16770600D01*
X30088345Y-16770600D02*
X30159774Y-16913457D01*
X30159774Y-16913457D02*
X30231203Y-16984885D01*
X30231203Y-16984885D02*
X30374060Y-17056314D01*
X28731203Y-17699171D02*
X29445489Y-17699171D01*
X29445489Y-17699171D02*
X29516917Y-16984885D01*
X29516917Y-16984885D02*
X29445489Y-17056314D01*
X29445489Y-17056314D02*
X29302632Y-17127742D01*
X29302632Y-17127742D02*
X28945489Y-17127742D01*
X28945489Y-17127742D02*
X28802632Y-17056314D01*
X28802632Y-17056314D02*
X28731203Y-16984885D01*
X28731203Y-16984885D02*
X28659774Y-16842028D01*
X28659774Y-16842028D02*
X28659774Y-16484885D01*
X28659774Y-16484885D02*
X28731203Y-16342028D01*
X28731203Y-16342028D02*
X28802632Y-16270600D01*
X28802632Y-16270600D02*
X28945489Y-16199171D01*
X28945489Y-16199171D02*
X29302632Y-16199171D01*
X29302632Y-16199171D02*
X29445489Y-16270600D01*
X29445489Y-16270600D02*
X29516917Y-16342028D01*
D10*
X38367219Y-81154136D02*
X38367219Y-81630326D01*
X38367219Y-81630326D02*
X37367219Y-81630326D01*
X38367219Y-80820802D02*
X37367219Y-80820802D01*
X38367219Y-80344612D02*
X37367219Y-80344612D01*
X37367219Y-80344612D02*
X37367219Y-80106517D01*
X37367219Y-80106517D02*
X37414838Y-79963660D01*
X37414838Y-79963660D02*
X37510076Y-79868422D01*
X37510076Y-79868422D02*
X37605314Y-79820803D01*
X37605314Y-79820803D02*
X37795790Y-79773184D01*
X37795790Y-79773184D02*
X37938647Y-79773184D01*
X37938647Y-79773184D02*
X38129123Y-79820803D01*
X38129123Y-79820803D02*
X38224361Y-79868422D01*
X38224361Y-79868422D02*
X38319600Y-79963660D01*
X38319600Y-79963660D02*
X38367219Y-80106517D01*
X38367219Y-80106517D02*
X38367219Y-80344612D01*
X38081504Y-79392231D02*
X38081504Y-78916041D01*
X38367219Y-79487469D02*
X37367219Y-79154136D01*
X37367219Y-79154136D02*
X38367219Y-78820803D01*
X38367219Y-77916041D02*
X37891028Y-78249374D01*
X38367219Y-78487469D02*
X37367219Y-78487469D01*
X37367219Y-78487469D02*
X37367219Y-78106517D01*
X37367219Y-78106517D02*
X37414838Y-78011279D01*
X37414838Y-78011279D02*
X37462457Y-77963660D01*
X37462457Y-77963660D02*
X37557695Y-77916041D01*
X37557695Y-77916041D02*
X37700552Y-77916041D01*
X37700552Y-77916041D02*
X37795790Y-77963660D01*
X37795790Y-77963660D02*
X37843409Y-78011279D01*
X37843409Y-78011279D02*
X37891028Y-78106517D01*
X37891028Y-78106517D02*
X37891028Y-78487469D01*
X60130326Y-16632780D02*
X60130326Y-17632780D01*
X60130326Y-17632780D02*
X59796993Y-16918495D01*
X59796993Y-16918495D02*
X59463660Y-17632780D01*
X59463660Y-17632780D02*
X59463660Y-16632780D01*
X58796993Y-17632780D02*
X58606517Y-17632780D01*
X58606517Y-17632780D02*
X58511279Y-17585161D01*
X58511279Y-17585161D02*
X58416041Y-17489923D01*
X58416041Y-17489923D02*
X58368422Y-17299447D01*
X58368422Y-17299447D02*
X58368422Y-16966114D01*
X58368422Y-16966114D02*
X58416041Y-16775638D01*
X58416041Y-16775638D02*
X58511279Y-16680400D01*
X58511279Y-16680400D02*
X58606517Y-16632780D01*
X58606517Y-16632780D02*
X58796993Y-16632780D01*
X58796993Y-16632780D02*
X58892231Y-16680400D01*
X58892231Y-16680400D02*
X58987469Y-16775638D01*
X58987469Y-16775638D02*
X59035088Y-16966114D01*
X59035088Y-16966114D02*
X59035088Y-17299447D01*
X59035088Y-17299447D02*
X58987469Y-17489923D01*
X58987469Y-17489923D02*
X58892231Y-17585161D01*
X58892231Y-17585161D02*
X58796993Y-17632780D01*
X58082707Y-17632780D02*
X57511279Y-17632780D01*
X57796993Y-16632780D02*
X57796993Y-17632780D01*
X57177945Y-16728019D02*
X57130326Y-16680400D01*
X57130326Y-16680400D02*
X57177945Y-16632780D01*
X57177945Y-16632780D02*
X57225564Y-16680400D01*
X57225564Y-16680400D02*
X57177945Y-16728019D01*
X57177945Y-16728019D02*
X57177945Y-16632780D01*
X55368422Y-16728019D02*
X55416041Y-16680400D01*
X55416041Y-16680400D02*
X55558898Y-16632780D01*
X55558898Y-16632780D02*
X55654136Y-16632780D01*
X55654136Y-16632780D02*
X55796993Y-16680400D01*
X55796993Y-16680400D02*
X55892231Y-16775638D01*
X55892231Y-16775638D02*
X55939850Y-16870876D01*
X55939850Y-16870876D02*
X55987469Y-17061352D01*
X55987469Y-17061352D02*
X55987469Y-17204209D01*
X55987469Y-17204209D02*
X55939850Y-17394685D01*
X55939850Y-17394685D02*
X55892231Y-17489923D01*
X55892231Y-17489923D02*
X55796993Y-17585161D01*
X55796993Y-17585161D02*
X55654136Y-17632780D01*
X55654136Y-17632780D02*
X55558898Y-17632780D01*
X55558898Y-17632780D02*
X55416041Y-17585161D01*
X55416041Y-17585161D02*
X55368422Y-17537542D01*
X54749374Y-17632780D02*
X54558898Y-17632780D01*
X54558898Y-17632780D02*
X54463660Y-17585161D01*
X54463660Y-17585161D02*
X54368422Y-17489923D01*
X54368422Y-17489923D02*
X54320803Y-17299447D01*
X54320803Y-17299447D02*
X54320803Y-16966114D01*
X54320803Y-16966114D02*
X54368422Y-16775638D01*
X54368422Y-16775638D02*
X54463660Y-16680400D01*
X54463660Y-16680400D02*
X54558898Y-16632780D01*
X54558898Y-16632780D02*
X54749374Y-16632780D01*
X54749374Y-16632780D02*
X54844612Y-16680400D01*
X54844612Y-16680400D02*
X54939850Y-16775638D01*
X54939850Y-16775638D02*
X54987469Y-16966114D01*
X54987469Y-16966114D02*
X54987469Y-17299447D01*
X54987469Y-17299447D02*
X54939850Y-17489923D01*
X54939850Y-17489923D02*
X54844612Y-17585161D01*
X54844612Y-17585161D02*
X54749374Y-17632780D01*
X53892231Y-16632780D02*
X53892231Y-17632780D01*
X53892231Y-17632780D02*
X53320803Y-16632780D01*
X53320803Y-16632780D02*
X53320803Y-17632780D01*
X52987469Y-17632780D02*
X52416041Y-17632780D01*
X52701755Y-16632780D02*
X52701755Y-17632780D01*
X51511279Y-16632780D02*
X51844612Y-17108971D01*
X52082707Y-16632780D02*
X52082707Y-17632780D01*
X52082707Y-17632780D02*
X51701755Y-17632780D01*
X51701755Y-17632780D02*
X51606517Y-17585161D01*
X51606517Y-17585161D02*
X51558898Y-17537542D01*
X51558898Y-17537542D02*
X51511279Y-17442304D01*
X51511279Y-17442304D02*
X51511279Y-17299447D01*
X51511279Y-17299447D02*
X51558898Y-17204209D01*
X51558898Y-17204209D02*
X51606517Y-17156590D01*
X51606517Y-17156590D02*
X51701755Y-17108971D01*
X51701755Y-17108971D02*
X52082707Y-17108971D01*
X50892231Y-17632780D02*
X50701755Y-17632780D01*
X50701755Y-17632780D02*
X50606517Y-17585161D01*
X50606517Y-17585161D02*
X50511279Y-17489923D01*
X50511279Y-17489923D02*
X50463660Y-17299447D01*
X50463660Y-17299447D02*
X50463660Y-16966114D01*
X50463660Y-16966114D02*
X50511279Y-16775638D01*
X50511279Y-16775638D02*
X50606517Y-16680400D01*
X50606517Y-16680400D02*
X50701755Y-16632780D01*
X50701755Y-16632780D02*
X50892231Y-16632780D01*
X50892231Y-16632780D02*
X50987469Y-16680400D01*
X50987469Y-16680400D02*
X51082707Y-16775638D01*
X51082707Y-16775638D02*
X51130326Y-16966114D01*
X51130326Y-16966114D02*
X51130326Y-17299447D01*
X51130326Y-17299447D02*
X51082707Y-17489923D01*
X51082707Y-17489923D02*
X50987469Y-17585161D01*
X50987469Y-17585161D02*
X50892231Y-17632780D01*
X49558898Y-16632780D02*
X50035088Y-16632780D01*
X50035088Y-16632780D02*
X50035088Y-17632780D01*
X48749374Y-16632780D02*
X49225564Y-16632780D01*
X49225564Y-16632780D02*
X49225564Y-17632780D01*
X48416040Y-17156590D02*
X48082707Y-17156590D01*
X47939850Y-16632780D02*
X48416040Y-16632780D01*
X48416040Y-16632780D02*
X48416040Y-17632780D01*
X48416040Y-17632780D02*
X47939850Y-17632780D01*
X46939850Y-16632780D02*
X47273183Y-17108971D01*
X47511278Y-16632780D02*
X47511278Y-17632780D01*
X47511278Y-17632780D02*
X47130326Y-17632780D01*
X47130326Y-17632780D02*
X47035088Y-17585161D01*
X47035088Y-17585161D02*
X46987469Y-17537542D01*
X46987469Y-17537542D02*
X46939850Y-17442304D01*
X46939850Y-17442304D02*
X46939850Y-17299447D01*
X46939850Y-17299447D02*
X46987469Y-17204209D01*
X46987469Y-17204209D02*
X47035088Y-17156590D01*
X47035088Y-17156590D02*
X47130326Y-17108971D01*
X47130326Y-17108971D02*
X47511278Y-17108971D01*
X66319600Y-81177945D02*
X66367219Y-81035088D01*
X66367219Y-81035088D02*
X66367219Y-80796993D01*
X66367219Y-80796993D02*
X66319600Y-80701755D01*
X66319600Y-80701755D02*
X66271980Y-80654136D01*
X66271980Y-80654136D02*
X66176742Y-80606517D01*
X66176742Y-80606517D02*
X66081504Y-80606517D01*
X66081504Y-80606517D02*
X65986266Y-80654136D01*
X65986266Y-80654136D02*
X65938647Y-80701755D01*
X65938647Y-80701755D02*
X65891028Y-80796993D01*
X65891028Y-80796993D02*
X65843409Y-80987469D01*
X65843409Y-80987469D02*
X65795790Y-81082707D01*
X65795790Y-81082707D02*
X65748171Y-81130326D01*
X65748171Y-81130326D02*
X65652933Y-81177945D01*
X65652933Y-81177945D02*
X65557695Y-81177945D01*
X65557695Y-81177945D02*
X65462457Y-81130326D01*
X65462457Y-81130326D02*
X65414838Y-81082707D01*
X65414838Y-81082707D02*
X65367219Y-80987469D01*
X65367219Y-80987469D02*
X65367219Y-80749374D01*
X65367219Y-80749374D02*
X65414838Y-80606517D01*
X65843409Y-80177945D02*
X65843409Y-79844612D01*
X66367219Y-79701755D02*
X66367219Y-80177945D01*
X66367219Y-80177945D02*
X65367219Y-80177945D01*
X65367219Y-80177945D02*
X65367219Y-79701755D01*
X66367219Y-78701755D02*
X65891028Y-79035088D01*
X66367219Y-79273183D02*
X65367219Y-79273183D01*
X65367219Y-79273183D02*
X65367219Y-78892231D01*
X65367219Y-78892231D02*
X65414838Y-78796993D01*
X65414838Y-78796993D02*
X65462457Y-78749374D01*
X65462457Y-78749374D02*
X65557695Y-78701755D01*
X65557695Y-78701755D02*
X65700552Y-78701755D01*
X65700552Y-78701755D02*
X65795790Y-78749374D01*
X65795790Y-78749374D02*
X65843409Y-78796993D01*
X65843409Y-78796993D02*
X65891028Y-78892231D01*
X65891028Y-78892231D02*
X65891028Y-79273183D01*
X65367219Y-78416040D02*
X66367219Y-78082707D01*
X66367219Y-78082707D02*
X65367219Y-77749374D01*
X65367219Y-77225564D02*
X65367219Y-77035088D01*
X65367219Y-77035088D02*
X65414838Y-76939850D01*
X65414838Y-76939850D02*
X65510076Y-76844612D01*
X65510076Y-76844612D02*
X65700552Y-76796993D01*
X65700552Y-76796993D02*
X66033885Y-76796993D01*
X66033885Y-76796993D02*
X66224361Y-76844612D01*
X66224361Y-76844612D02*
X66319600Y-76939850D01*
X66319600Y-76939850D02*
X66367219Y-77035088D01*
X66367219Y-77035088D02*
X66367219Y-77225564D01*
X66367219Y-77225564D02*
X66319600Y-77320802D01*
X66319600Y-77320802D02*
X66224361Y-77416040D01*
X66224361Y-77416040D02*
X66033885Y-77463659D01*
X66033885Y-77463659D02*
X65700552Y-77463659D01*
X65700552Y-77463659D02*
X65510076Y-77416040D01*
X65510076Y-77416040D02*
X65414838Y-77320802D01*
X65414838Y-77320802D02*
X65367219Y-77225564D01*
D13*
X67166666Y-23004819D02*
X67166666Y-23719104D01*
X67166666Y-23719104D02*
X67119047Y-23861961D01*
X67119047Y-23861961D02*
X67023809Y-23957200D01*
X67023809Y-23957200D02*
X66880952Y-24004819D01*
X66880952Y-24004819D02*
X66785714Y-24004819D01*
X68071428Y-23338152D02*
X68071428Y-24004819D01*
X67833333Y-22957200D02*
X67595238Y-23671485D01*
X67595238Y-23671485D02*
X68214285Y-23671485D01*
X29306666Y-23004819D02*
X29306666Y-23719104D01*
X29306666Y-23719104D02*
X29259047Y-23861961D01*
X29259047Y-23861961D02*
X29163809Y-23957200D01*
X29163809Y-23957200D02*
X29020952Y-24004819D01*
X29020952Y-24004819D02*
X28925714Y-24004819D01*
X29687619Y-23004819D02*
X30306666Y-23004819D01*
X30306666Y-23004819D02*
X29973333Y-23385771D01*
X29973333Y-23385771D02*
X30116190Y-23385771D01*
X30116190Y-23385771D02*
X30211428Y-23433390D01*
X30211428Y-23433390D02*
X30259047Y-23481009D01*
X30259047Y-23481009D02*
X30306666Y-23576247D01*
X30306666Y-23576247D02*
X30306666Y-23814342D01*
X30306666Y-23814342D02*
X30259047Y-23909580D01*
X30259047Y-23909580D02*
X30211428Y-23957200D01*
X30211428Y-23957200D02*
X30116190Y-24004819D01*
X30116190Y-24004819D02*
X29830476Y-24004819D01*
X29830476Y-24004819D02*
X29735238Y-23957200D01*
X29735238Y-23957200D02*
X29687619Y-23909580D01*
D14*
%TO.C,PSU1*%
X23660000Y-83160000D02*
X23660000Y-83900000D01*
X23660000Y-83900000D02*
X24160000Y-83900000D01*
X23900000Y-77340000D02*
X23900000Y-83660000D01*
X23900000Y-77340000D02*
X29560000Y-77340000D01*
X23900000Y-77800000D02*
X29560000Y-77800000D01*
X23900000Y-83100000D02*
X24670000Y-83100000D01*
X23900000Y-83660000D02*
X24670000Y-83660000D01*
X26250000Y-83100000D02*
X27210000Y-83100000D01*
X26250000Y-83660000D02*
X27210000Y-83660000D01*
X28790000Y-83100000D02*
X29560000Y-83100000D01*
X28790000Y-83660000D02*
X29560000Y-83660000D01*
X29560000Y-77340000D02*
X29560000Y-83660000D01*
%TO.C,GYRO1*%
X19050000Y-18670000D02*
X20380000Y-18670000D01*
X19050000Y-20000000D02*
X19050000Y-18670000D01*
X21650000Y-18670000D02*
X44570000Y-18670000D01*
X21650000Y-21330000D02*
X21650000Y-18670000D01*
X21650000Y-21330000D02*
X44570000Y-21330000D01*
X44570000Y-21330000D02*
X44570000Y-18670000D01*
%TO.C,J8*%
X56630000Y-79940000D02*
X56630000Y-82600000D01*
X56630000Y-82600000D02*
X64370000Y-82600000D01*
X57580000Y-79542929D02*
X57580000Y-79940000D01*
X57580000Y-88600000D02*
X57580000Y-82600000D01*
X58340000Y-79542929D02*
X58340000Y-79940000D01*
X58340000Y-82600000D02*
X58340000Y-88600000D01*
X58340000Y-88600000D02*
X57580000Y-88600000D01*
X59230000Y-79940000D02*
X59230000Y-82600000D01*
X60120000Y-79542929D02*
X60120000Y-79940000D01*
X60120000Y-88600000D02*
X60120000Y-82600000D01*
X60880000Y-79542929D02*
X60880000Y-79940000D01*
X60880000Y-82600000D02*
X60880000Y-88600000D01*
X60880000Y-88600000D02*
X60120000Y-88600000D01*
X61770000Y-79940000D02*
X61770000Y-82600000D01*
X62660000Y-79610000D02*
X62660000Y-79940000D01*
X62660000Y-88600000D02*
X62660000Y-82600000D01*
X62760000Y-82600000D02*
X62760000Y-88600000D01*
X62880000Y-82600000D02*
X62880000Y-88600000D01*
X63000000Y-82600000D02*
X63000000Y-88600000D01*
X63040000Y-77230000D02*
X64310000Y-77230000D01*
X63120000Y-82600000D02*
X63120000Y-88600000D01*
X63240000Y-82600000D02*
X63240000Y-88600000D01*
X63360000Y-82600000D02*
X63360000Y-88600000D01*
X63420000Y-79610000D02*
X63420000Y-79940000D01*
X63420000Y-82600000D02*
X63420000Y-88600000D01*
X63420000Y-88600000D02*
X62660000Y-88600000D01*
X64310000Y-77230000D02*
X64310000Y-78500000D01*
X64370000Y-79940000D02*
X56630000Y-79940000D01*
X64370000Y-82600000D02*
X64370000Y-79940000D01*
D15*
%TO.C,G\u002A\u002A\u002A*%
G36*
X24468802Y-31134771D02*
G01*
X24469224Y-31228711D01*
X24469379Y-31307512D01*
X24469244Y-31372323D01*
X24468794Y-31424291D01*
X24468006Y-31464563D01*
X24466857Y-31494287D01*
X24465324Y-31514610D01*
X24463382Y-31526680D01*
X24461008Y-31531644D01*
X24460658Y-31531830D01*
X24451460Y-31532269D01*
X24426888Y-31532665D01*
X24387853Y-31533019D01*
X24335269Y-31533327D01*
X24270050Y-31533589D01*
X24193106Y-31533804D01*
X24105352Y-31533970D01*
X24007699Y-31534086D01*
X23901061Y-31534150D01*
X23786351Y-31534161D01*
X23664480Y-31534117D01*
X23536362Y-31534018D01*
X23402910Y-31533862D01*
X23265036Y-31533647D01*
X23261430Y-31533641D01*
X22072459Y-31531548D01*
X22072459Y-31136582D01*
X22072459Y-30741615D01*
X23269573Y-30741615D01*
X24466688Y-30741615D01*
X24468802Y-31134771D01*
G37*
G36*
X22064315Y-37325745D02*
G01*
X22064315Y-37728855D01*
X21667313Y-37730968D01*
X21270311Y-37733082D01*
X21270311Y-38930041D01*
X21270311Y-40127001D01*
X21667313Y-40129114D01*
X22064315Y-40131228D01*
X22066430Y-40520311D01*
X22066854Y-40613731D01*
X22067008Y-40692018D01*
X22066867Y-40756327D01*
X22066409Y-40807809D01*
X22065608Y-40847620D01*
X22064441Y-40876911D01*
X22062885Y-40896835D01*
X22060915Y-40908548D01*
X22058508Y-40913200D01*
X22058287Y-40913305D01*
X22048859Y-40913835D01*
X22024262Y-40914302D01*
X21985613Y-40914703D01*
X21934028Y-40915036D01*
X21870625Y-40915299D01*
X21796522Y-40915489D01*
X21712836Y-40915604D01*
X21620685Y-40915641D01*
X21521185Y-40915597D01*
X21415453Y-40915471D01*
X21304608Y-40915259D01*
X21245880Y-40915116D01*
X20443732Y-40913017D01*
X20443732Y-38917826D01*
X20443732Y-36922635D01*
X21254024Y-36922635D01*
X22064315Y-36922635D01*
X22064315Y-37325745D01*
G37*
G36*
X21292746Y-41949274D02*
G01*
X21294822Y-42749365D01*
X22880755Y-42751422D01*
X24466688Y-42753478D01*
X24468799Y-43157192D01*
X24469107Y-43236773D01*
X24469186Y-43311371D01*
X24469049Y-43379407D01*
X24468710Y-43439306D01*
X24468182Y-43489491D01*
X24467477Y-43528384D01*
X24466609Y-43554410D01*
X24465591Y-43565992D01*
X24465406Y-43566409D01*
X24456832Y-43566964D01*
X24432757Y-43567502D01*
X24393966Y-43568023D01*
X24341245Y-43568523D01*
X24275380Y-43569000D01*
X24197156Y-43569450D01*
X24107359Y-43569872D01*
X24006776Y-43570261D01*
X23896191Y-43570617D01*
X23776390Y-43570935D01*
X23648160Y-43571213D01*
X23512285Y-43571449D01*
X23369552Y-43571640D01*
X23220747Y-43571782D01*
X23066654Y-43571874D01*
X22908061Y-43571913D01*
X22877362Y-43571914D01*
X21294823Y-43571914D01*
X21292746Y-44359810D01*
X21290670Y-45147707D01*
X20867201Y-45147707D01*
X20443732Y-45147707D01*
X20443732Y-43148445D01*
X20443732Y-41149182D01*
X20867201Y-41149182D01*
X21290670Y-41149182D01*
X21292746Y-41949274D01*
G37*
G36*
X24442257Y-29564860D02*
G01*
X24442257Y-29992401D01*
X22868499Y-29994458D01*
X21294742Y-29996514D01*
X21294742Y-31169157D01*
X21294742Y-32341799D01*
X22880715Y-32343855D01*
X24466688Y-32345912D01*
X24468802Y-32739068D01*
X24469224Y-32833007D01*
X24469379Y-32911807D01*
X24469244Y-32976618D01*
X24468794Y-33028585D01*
X24468006Y-33068856D01*
X24466858Y-33098580D01*
X24465324Y-33118902D01*
X24463382Y-33130971D01*
X24461008Y-33135934D01*
X24460658Y-33136121D01*
X24451702Y-33136462D01*
X24427159Y-33136778D01*
X24387727Y-33137069D01*
X24334109Y-33137334D01*
X24267002Y-33137572D01*
X24187108Y-33137784D01*
X24095126Y-33137967D01*
X23991756Y-33138122D01*
X23877697Y-33138248D01*
X23753651Y-33138345D01*
X23620316Y-33138411D01*
X23478392Y-33138446D01*
X23328580Y-33138449D01*
X23171579Y-33138420D01*
X23008090Y-33138359D01*
X22838811Y-33138264D01*
X22664444Y-33138134D01*
X22485687Y-33137970D01*
X22447066Y-33137931D01*
X20443732Y-33135844D01*
X20443732Y-31136582D01*
X20443732Y-29137319D01*
X22442994Y-29137319D01*
X24442257Y-29137319D01*
X24442257Y-29564860D01*
G37*
G36*
X24468740Y-26570287D02*
G01*
X24468951Y-26791359D01*
X24469116Y-26996657D01*
X24469231Y-27186696D01*
X24469296Y-27361990D01*
X24469308Y-27523051D01*
X24469264Y-27670395D01*
X24469164Y-27804536D01*
X24469004Y-27925986D01*
X24468783Y-28035260D01*
X24468498Y-28132873D01*
X24468148Y-28219337D01*
X24467731Y-28295167D01*
X24467244Y-28360876D01*
X24466685Y-28416979D01*
X24466052Y-28463990D01*
X24465343Y-28502421D01*
X24464557Y-28532788D01*
X24463690Y-28555604D01*
X24462742Y-28571384D01*
X24461709Y-28580640D01*
X24460596Y-28583884D01*
X24450674Y-28584606D01*
X24426050Y-28585202D01*
X24388310Y-28585666D01*
X24339039Y-28585991D01*
X24279822Y-28586170D01*
X24212245Y-28586197D01*
X24137893Y-28586064D01*
X24058351Y-28585765D01*
X24039147Y-28585671D01*
X23627893Y-28583552D01*
X23625837Y-27009794D01*
X23623780Y-25436037D01*
X23249283Y-25436037D01*
X22874786Y-25436037D01*
X22872660Y-25776034D01*
X22870535Y-26116030D01*
X22451138Y-26116030D01*
X22031741Y-26116030D01*
X22031741Y-25338313D01*
X22031741Y-24560596D01*
X23249214Y-24560596D01*
X24466688Y-24560596D01*
X24468740Y-26570287D01*
G37*
G36*
X24468740Y-47369133D02*
G01*
X24468951Y-47590205D01*
X24469116Y-47795503D01*
X24469231Y-47985542D01*
X24469296Y-48160835D01*
X24469308Y-48321897D01*
X24469264Y-48469241D01*
X24469164Y-48603381D01*
X24469004Y-48724832D01*
X24468783Y-48834106D01*
X24468498Y-48931719D01*
X24468148Y-49018183D01*
X24467731Y-49094013D01*
X24467244Y-49159722D01*
X24466685Y-49215825D01*
X24466052Y-49262835D01*
X24465343Y-49301267D01*
X24464557Y-49331634D01*
X24463690Y-49354450D01*
X24462742Y-49370229D01*
X24461709Y-49379485D01*
X24460596Y-49382730D01*
X24450674Y-49383452D01*
X24426050Y-49384048D01*
X24388310Y-49384512D01*
X24339039Y-49384837D01*
X24279822Y-49385016D01*
X24212245Y-49385043D01*
X24137893Y-49384910D01*
X24058351Y-49384611D01*
X24039147Y-49384516D01*
X23627893Y-49382398D01*
X23625837Y-47808640D01*
X23623780Y-46234883D01*
X23249283Y-46234883D01*
X22874786Y-46234883D01*
X22872660Y-46574879D01*
X22870535Y-46914876D01*
X22451138Y-46914876D01*
X22031741Y-46914876D01*
X22031741Y-46137159D01*
X22031741Y-45359442D01*
X23249214Y-45359442D01*
X24466688Y-45359442D01*
X24468740Y-47369133D01*
G37*
G36*
X24452453Y-38916039D02*
G01*
X24452665Y-39136182D01*
X24452830Y-39340554D01*
X24452945Y-39529671D01*
X24453010Y-39704048D01*
X24453020Y-39864202D01*
X24452976Y-40010649D01*
X24452873Y-40143905D01*
X24452711Y-40264485D01*
X24452487Y-40372906D01*
X24452198Y-40469684D01*
X24451844Y-40555334D01*
X24451421Y-40630373D01*
X24450929Y-40695316D01*
X24450363Y-40750680D01*
X24449724Y-40796981D01*
X24449007Y-40834734D01*
X24448212Y-40864455D01*
X24447336Y-40886662D01*
X24446377Y-40901868D01*
X24445333Y-40910592D01*
X24444309Y-40913330D01*
X24434881Y-40913860D01*
X24410292Y-40914326D01*
X24371668Y-40914726D01*
X24320135Y-40915057D01*
X24256820Y-40915317D01*
X24182848Y-40915503D01*
X24099345Y-40915613D01*
X24007438Y-40915644D01*
X23908254Y-40915593D01*
X23802917Y-40915458D01*
X23692554Y-40915237D01*
X23644181Y-40915116D01*
X22854248Y-40913017D01*
X22854248Y-40522122D01*
X22854248Y-40131228D01*
X23239035Y-40129112D01*
X23623822Y-40126996D01*
X23623822Y-38930041D01*
X23623822Y-37733086D01*
X23239035Y-37730971D01*
X22854248Y-37728855D01*
X22854248Y-37325745D01*
X22854248Y-36922635D01*
X23652324Y-36922635D01*
X24450401Y-36922635D01*
X24452453Y-38916039D01*
G37*
G36*
X21292726Y-26187287D02*
G01*
X21294782Y-27789548D01*
X21661654Y-27789548D01*
X22028526Y-27789548D01*
X22021990Y-27530987D01*
X22020355Y-27464366D01*
X22018870Y-27400097D01*
X22017587Y-27340771D01*
X22016559Y-27288981D01*
X22015841Y-27247319D01*
X22015483Y-27218377D01*
X22015453Y-27211349D01*
X22015453Y-27150272D01*
X22442994Y-27150272D01*
X22870535Y-27150272D01*
X22872616Y-27865115D01*
X22872948Y-27994082D01*
X22873141Y-28107620D01*
X22873186Y-28206585D01*
X22873072Y-28291836D01*
X22872791Y-28364229D01*
X22872331Y-28424623D01*
X22871684Y-28473873D01*
X22870839Y-28512838D01*
X22869788Y-28542375D01*
X22868519Y-28563341D01*
X22867025Y-28576593D01*
X22865294Y-28582990D01*
X22864472Y-28583847D01*
X22855285Y-28584281D01*
X22830717Y-28584674D01*
X22791674Y-28585024D01*
X22739064Y-28585330D01*
X22673791Y-28585591D01*
X22596764Y-28585805D01*
X22508887Y-28585971D01*
X22411067Y-28586087D01*
X22304211Y-28586153D01*
X22189225Y-28586167D01*
X22067016Y-28586127D01*
X21938489Y-28586032D01*
X21804552Y-28585882D01*
X21666110Y-28585674D01*
X21648990Y-28585644D01*
X20443732Y-28583552D01*
X20443732Y-26584289D01*
X20443732Y-24585027D01*
X20867201Y-24585027D01*
X21290670Y-24585027D01*
X21292726Y-26187287D01*
G37*
G36*
X21292726Y-46986133D02*
G01*
X21294782Y-48588393D01*
X21661654Y-48588393D01*
X22028526Y-48588393D01*
X22021990Y-48329833D01*
X22020355Y-48263212D01*
X22018870Y-48198942D01*
X22017587Y-48139617D01*
X22016559Y-48087827D01*
X22015841Y-48046165D01*
X22015483Y-48017223D01*
X22015453Y-48010195D01*
X22015453Y-47949118D01*
X22442994Y-47949118D01*
X22870535Y-47949118D01*
X22872616Y-48663960D01*
X22872948Y-48792928D01*
X22873141Y-48906465D01*
X22873186Y-49005431D01*
X22873072Y-49090682D01*
X22872791Y-49163075D01*
X22872331Y-49223468D01*
X22871684Y-49272719D01*
X22870839Y-49311684D01*
X22869788Y-49341221D01*
X22868519Y-49362187D01*
X22867025Y-49375439D01*
X22865294Y-49381836D01*
X22864472Y-49382693D01*
X22855285Y-49383127D01*
X22830717Y-49383520D01*
X22791674Y-49383870D01*
X22739064Y-49384176D01*
X22673791Y-49384437D01*
X22596764Y-49384651D01*
X22508887Y-49384817D01*
X22411067Y-49384933D01*
X22304211Y-49384999D01*
X22189225Y-49385012D01*
X22067016Y-49384973D01*
X21938489Y-49384878D01*
X21804552Y-49384727D01*
X21666110Y-49384519D01*
X21648990Y-49384490D01*
X20443732Y-49382398D01*
X20443732Y-47383135D01*
X20443732Y-45383873D01*
X20867201Y-45383873D01*
X21290670Y-45383873D01*
X21292726Y-46986133D01*
G37*
G36*
X22074582Y-33782769D02*
G01*
X22074968Y-33879131D01*
X22074887Y-33961186D01*
X22074345Y-34028586D01*
X22073348Y-34080983D01*
X22071902Y-34118029D01*
X22070012Y-34139378D01*
X22068479Y-34144749D01*
X22058259Y-34146879D01*
X22032408Y-34148883D01*
X21991584Y-34150741D01*
X21936444Y-34152433D01*
X21867645Y-34153940D01*
X21785843Y-34155242D01*
X21691696Y-34156320D01*
X21677497Y-34156452D01*
X21294742Y-34159929D01*
X21294742Y-34883663D01*
X21294742Y-35607397D01*
X22880715Y-35609453D01*
X24466688Y-35611510D01*
X24468801Y-36008738D01*
X24469222Y-36103195D01*
X24469378Y-36182508D01*
X24469248Y-36247819D01*
X24468806Y-36300269D01*
X24468032Y-36341002D01*
X24466900Y-36371158D01*
X24465388Y-36391878D01*
X24463473Y-36404306D01*
X24461132Y-36409582D01*
X24460658Y-36409862D01*
X24451702Y-36410203D01*
X24427158Y-36410520D01*
X24387727Y-36410811D01*
X24334108Y-36411076D01*
X24267002Y-36411314D01*
X24187108Y-36411525D01*
X24095126Y-36411709D01*
X23991755Y-36411864D01*
X23877697Y-36411990D01*
X23753651Y-36412086D01*
X23620316Y-36412152D01*
X23478392Y-36412187D01*
X23328580Y-36412191D01*
X23171580Y-36412162D01*
X23008090Y-36412100D01*
X22838811Y-36412005D01*
X22664444Y-36411876D01*
X22485687Y-36411712D01*
X22447066Y-36411673D01*
X20443732Y-36409586D01*
X20443732Y-34919301D01*
X20443732Y-33429015D01*
X21258095Y-33429015D01*
X22072459Y-33429015D01*
X22074582Y-33782769D01*
G37*
D14*
%TO.C,J2*%
X58670000Y-27590000D02*
X58670000Y-73370000D01*
X58670000Y-27590000D02*
X61330000Y-27590000D01*
X58670000Y-73370000D02*
X61330000Y-73370000D01*
X60000000Y-24990000D02*
X61330000Y-24990000D01*
X61330000Y-24990000D02*
X61330000Y-26320000D01*
X61330000Y-27590000D02*
X61330000Y-73370000D01*
%TO.C,J5*%
X20670000Y-52170000D02*
X22000000Y-52170000D01*
X20670000Y-53500000D02*
X20670000Y-52170000D01*
X20670000Y-54770000D02*
X20670000Y-57370000D01*
X20670000Y-54770000D02*
X23330000Y-54770000D01*
X20670000Y-57370000D02*
X23330000Y-57370000D01*
X23330000Y-54770000D02*
X23330000Y-57370000D01*
%TO.C,J4*%
X66170000Y-27590000D02*
X66170000Y-73370000D01*
X66170000Y-27590000D02*
X68830000Y-27590000D01*
X66170000Y-73370000D02*
X68830000Y-73370000D01*
X67500000Y-24990000D02*
X68830000Y-24990000D01*
X68830000Y-24990000D02*
X68830000Y-26320000D01*
X68830000Y-27590000D02*
X68830000Y-73370000D01*
%TO.C,J3*%
X28310000Y-27590000D02*
X28310000Y-73370000D01*
X28310000Y-27590000D02*
X30970000Y-27590000D01*
X28310000Y-73370000D02*
X30970000Y-73370000D01*
X29640000Y-24990000D02*
X30970000Y-24990000D01*
X30970000Y-24990000D02*
X30970000Y-26320000D01*
X30970000Y-27590000D02*
X30970000Y-73370000D01*
%TO.C,J6*%
X48170000Y-21330000D02*
X48170000Y-20000000D01*
X49500000Y-21330000D02*
X48170000Y-21330000D01*
X50770000Y-18670000D02*
X53370000Y-18670000D01*
X50770000Y-21330000D02*
X50770000Y-18670000D01*
X50770000Y-21330000D02*
X53370000Y-21330000D01*
X53370000Y-21330000D02*
X53370000Y-18670000D01*
%TO.C,J1*%
X35810000Y-27590000D02*
X35810000Y-73370000D01*
X35810000Y-27590000D02*
X38470000Y-27590000D01*
X35810000Y-73370000D02*
X38470000Y-73370000D01*
X37140000Y-24990000D02*
X38470000Y-24990000D01*
X38470000Y-24990000D02*
X38470000Y-26320000D01*
X38470000Y-27590000D02*
X38470000Y-73370000D01*
%TO.C,J7*%
X43090000Y-79940000D02*
X43090000Y-82600000D01*
X43090000Y-82600000D02*
X53370000Y-82600000D01*
X44040000Y-79542929D02*
X44040000Y-79940000D01*
X44040000Y-88600000D02*
X44040000Y-82600000D01*
X44800000Y-79542929D02*
X44800000Y-79940000D01*
X44800000Y-82600000D02*
X44800000Y-88600000D01*
X44800000Y-88600000D02*
X44040000Y-88600000D01*
X45690000Y-79940000D02*
X45690000Y-82600000D01*
X46580000Y-79542929D02*
X46580000Y-79940000D01*
X46580000Y-88600000D02*
X46580000Y-82600000D01*
X47340000Y-79542929D02*
X47340000Y-79940000D01*
X47340000Y-82600000D02*
X47340000Y-88600000D01*
X47340000Y-88600000D02*
X46580000Y-88600000D01*
X48230000Y-79940000D02*
X48230000Y-82600000D01*
X49120000Y-79542929D02*
X49120000Y-79940000D01*
X49120000Y-88600000D02*
X49120000Y-82600000D01*
X49880000Y-79542929D02*
X49880000Y-79940000D01*
X49880000Y-82600000D02*
X49880000Y-88600000D01*
X49880000Y-88600000D02*
X49120000Y-88600000D01*
X50770000Y-79940000D02*
X50770000Y-82600000D01*
X51660000Y-79610000D02*
X51660000Y-79940000D01*
X51660000Y-88600000D02*
X51660000Y-82600000D01*
X51760000Y-82600000D02*
X51760000Y-88600000D01*
X51880000Y-82600000D02*
X51880000Y-88600000D01*
X52000000Y-82600000D02*
X52000000Y-88600000D01*
X52040000Y-77230000D02*
X53310000Y-77230000D01*
X52120000Y-82600000D02*
X52120000Y-88600000D01*
X52240000Y-82600000D02*
X52240000Y-88600000D01*
X52360000Y-82600000D02*
X52360000Y-88600000D01*
X52420000Y-79610000D02*
X52420000Y-79940000D01*
X52420000Y-82600000D02*
X52420000Y-88600000D01*
X52420000Y-88600000D02*
X51660000Y-88600000D01*
X53310000Y-77230000D02*
X53310000Y-78500000D01*
X53370000Y-79940000D02*
X43090000Y-79940000D01*
X53370000Y-82600000D02*
X53370000Y-79940000D01*
%TO.C,LIDAR1*%
X33670000Y-79940000D02*
X33670000Y-82600000D01*
X33670000Y-82600000D02*
X36330000Y-82600000D01*
X34620000Y-79610000D02*
X34620000Y-79940000D01*
X34620000Y-88600000D02*
X34620000Y-82600000D01*
X34720000Y-82600000D02*
X34720000Y-88600000D01*
X34840000Y-82600000D02*
X34840000Y-88600000D01*
X34960000Y-82600000D02*
X34960000Y-88600000D01*
X35000000Y-77230000D02*
X36270000Y-77230000D01*
X35080000Y-82600000D02*
X35080000Y-88600000D01*
X35200000Y-82600000D02*
X35200000Y-88600000D01*
X35320000Y-82600000D02*
X35320000Y-88600000D01*
X35380000Y-79610000D02*
X35380000Y-79940000D01*
X35380000Y-82600000D02*
X35380000Y-88600000D01*
X35380000Y-88600000D02*
X34620000Y-88600000D01*
X36270000Y-77230000D02*
X36270000Y-78500000D01*
X36330000Y-79940000D02*
X33670000Y-79940000D01*
X36330000Y-82600000D02*
X36330000Y-79940000D01*
%TD*%
M02*
