%TF.GenerationSoftware,KiCad,Pcbnew,8.0.6*%
%TF.CreationDate,2025-09-05T14:44:53+02:00*%
%TF.ProjectId,wro-nyak,77726f2d-6e79-4616-9b2e-6b696361645f,rev?*%
%TF.SameCoordinates,Original*%
%TF.FileFunction,Copper,L1,Top*%
%TF.FilePolarity,Positive*%
%FSLAX46Y46*%
G04 Gerber Fmt 4.6, Leading zero omitted, Abs format (unit mm)*
G04 Created by KiCad (PCBNEW 8.0.6) date 2025-09-05 14:44:53*
%MOMM*%
%LPD*%
G01*
G04 APERTURE LIST*
%ADD10C,0.300000*%
%TA.AperFunction,NonConductor*%
%ADD11C,0.300000*%
%TD*%
%TA.AperFunction,NonConductor*%
%ADD12C,0.200000*%
%TD*%
%TA.AperFunction,ComponentPad*%
%ADD13R,2.200000X2.200000*%
%TD*%
%TA.AperFunction,ComponentPad*%
%ADD14C,2.200000*%
%TD*%
%TA.AperFunction,ComponentPad*%
%ADD15R,1.700000X1.700000*%
%TD*%
%TA.AperFunction,ComponentPad*%
%ADD16O,1.700000X1.700000*%
%TD*%
%TA.AperFunction,ViaPad*%
%ADD17C,0.600000*%
%TD*%
%TA.AperFunction,Conductor*%
%ADD18C,0.400000*%
%TD*%
%TA.AperFunction,Conductor*%
%ADD19C,0.200000*%
%TD*%
G04 APERTURE END LIST*
D10*
D11*
X38857144Y-3378328D02*
X38142858Y-3378328D01*
X38142858Y-3378328D02*
X38071430Y-4092614D01*
X38071430Y-4092614D02*
X38142858Y-4021185D01*
X38142858Y-4021185D02*
X38285716Y-3949757D01*
X38285716Y-3949757D02*
X38642858Y-3949757D01*
X38642858Y-3949757D02*
X38785716Y-4021185D01*
X38785716Y-4021185D02*
X38857144Y-4092614D01*
X38857144Y-4092614D02*
X38928573Y-4235471D01*
X38928573Y-4235471D02*
X38928573Y-4592614D01*
X38928573Y-4592614D02*
X38857144Y-4735471D01*
X38857144Y-4735471D02*
X38785716Y-4806900D01*
X38785716Y-4806900D02*
X38642858Y-4878328D01*
X38642858Y-4878328D02*
X38285716Y-4878328D01*
X38285716Y-4878328D02*
X38142858Y-4806900D01*
X38142858Y-4806900D02*
X38071430Y-4735471D01*
X40285715Y-3378328D02*
X39571429Y-3378328D01*
X39571429Y-3378328D02*
X39500001Y-4092614D01*
X39500001Y-4092614D02*
X39571429Y-4021185D01*
X39571429Y-4021185D02*
X39714287Y-3949757D01*
X39714287Y-3949757D02*
X40071429Y-3949757D01*
X40071429Y-3949757D02*
X40214287Y-4021185D01*
X40214287Y-4021185D02*
X40285715Y-4092614D01*
X40285715Y-4092614D02*
X40357144Y-4235471D01*
X40357144Y-4235471D02*
X40357144Y-4592614D01*
X40357144Y-4592614D02*
X40285715Y-4735471D01*
X40285715Y-4735471D02*
X40214287Y-4806900D01*
X40214287Y-4806900D02*
X40071429Y-4878328D01*
X40071429Y-4878328D02*
X39714287Y-4878328D01*
X39714287Y-4878328D02*
X39571429Y-4806900D01*
X39571429Y-4806900D02*
X39500001Y-4735471D01*
X41071429Y-4806900D02*
X41071429Y-4878328D01*
X41071429Y-4878328D02*
X41000000Y-5021185D01*
X41000000Y-5021185D02*
X40928572Y-5092614D01*
X42000001Y-3378328D02*
X42142858Y-3378328D01*
X42142858Y-3378328D02*
X42285715Y-3449757D01*
X42285715Y-3449757D02*
X42357144Y-3521185D01*
X42357144Y-3521185D02*
X42428572Y-3664042D01*
X42428572Y-3664042D02*
X42500001Y-3949757D01*
X42500001Y-3949757D02*
X42500001Y-4306900D01*
X42500001Y-4306900D02*
X42428572Y-4592614D01*
X42428572Y-4592614D02*
X42357144Y-4735471D01*
X42357144Y-4735471D02*
X42285715Y-4806900D01*
X42285715Y-4806900D02*
X42142858Y-4878328D01*
X42142858Y-4878328D02*
X42000001Y-4878328D01*
X42000001Y-4878328D02*
X41857144Y-4806900D01*
X41857144Y-4806900D02*
X41785715Y-4735471D01*
X41785715Y-4735471D02*
X41714286Y-4592614D01*
X41714286Y-4592614D02*
X41642858Y-4306900D01*
X41642858Y-4306900D02*
X41642858Y-3949757D01*
X41642858Y-3949757D02*
X41714286Y-3664042D01*
X41714286Y-3664042D02*
X41785715Y-3521185D01*
X41785715Y-3521185D02*
X41857144Y-3449757D01*
X41857144Y-3449757D02*
X42000001Y-3378328D01*
X43428572Y-3378328D02*
X43571429Y-3378328D01*
X43571429Y-3378328D02*
X43714286Y-3449757D01*
X43714286Y-3449757D02*
X43785715Y-3521185D01*
X43785715Y-3521185D02*
X43857143Y-3664042D01*
X43857143Y-3664042D02*
X43928572Y-3949757D01*
X43928572Y-3949757D02*
X43928572Y-4306900D01*
X43928572Y-4306900D02*
X43857143Y-4592614D01*
X43857143Y-4592614D02*
X43785715Y-4735471D01*
X43785715Y-4735471D02*
X43714286Y-4806900D01*
X43714286Y-4806900D02*
X43571429Y-4878328D01*
X43571429Y-4878328D02*
X43428572Y-4878328D01*
X43428572Y-4878328D02*
X43285715Y-4806900D01*
X43285715Y-4806900D02*
X43214286Y-4735471D01*
X43214286Y-4735471D02*
X43142857Y-4592614D01*
X43142857Y-4592614D02*
X43071429Y-4306900D01*
X43071429Y-4306900D02*
X43071429Y-3949757D01*
X43071429Y-3949757D02*
X43142857Y-3664042D01*
X43142857Y-3664042D02*
X43214286Y-3521185D01*
X43214286Y-3521185D02*
X43285715Y-3449757D01*
X43285715Y-3449757D02*
X43428572Y-3378328D01*
X44857143Y-3378328D02*
X45000000Y-3378328D01*
X45000000Y-3378328D02*
X45142857Y-3449757D01*
X45142857Y-3449757D02*
X45214286Y-3521185D01*
X45214286Y-3521185D02*
X45285714Y-3664042D01*
X45285714Y-3664042D02*
X45357143Y-3949757D01*
X45357143Y-3949757D02*
X45357143Y-4306900D01*
X45357143Y-4306900D02*
X45285714Y-4592614D01*
X45285714Y-4592614D02*
X45214286Y-4735471D01*
X45214286Y-4735471D02*
X45142857Y-4806900D01*
X45142857Y-4806900D02*
X45000000Y-4878328D01*
X45000000Y-4878328D02*
X44857143Y-4878328D01*
X44857143Y-4878328D02*
X44714286Y-4806900D01*
X44714286Y-4806900D02*
X44642857Y-4735471D01*
X44642857Y-4735471D02*
X44571428Y-4592614D01*
X44571428Y-4592614D02*
X44500000Y-4306900D01*
X44500000Y-4306900D02*
X44500000Y-3949757D01*
X44500000Y-3949757D02*
X44571428Y-3664042D01*
X44571428Y-3664042D02*
X44642857Y-3521185D01*
X44642857Y-3521185D02*
X44714286Y-3449757D01*
X44714286Y-3449757D02*
X44857143Y-3378328D01*
X46285714Y-3378328D02*
X46428571Y-3378328D01*
X46428571Y-3378328D02*
X46571428Y-3449757D01*
X46571428Y-3449757D02*
X46642857Y-3521185D01*
X46642857Y-3521185D02*
X46714285Y-3664042D01*
X46714285Y-3664042D02*
X46785714Y-3949757D01*
X46785714Y-3949757D02*
X46785714Y-4306900D01*
X46785714Y-4306900D02*
X46714285Y-4592614D01*
X46714285Y-4592614D02*
X46642857Y-4735471D01*
X46642857Y-4735471D02*
X46571428Y-4806900D01*
X46571428Y-4806900D02*
X46428571Y-4878328D01*
X46428571Y-4878328D02*
X46285714Y-4878328D01*
X46285714Y-4878328D02*
X46142857Y-4806900D01*
X46142857Y-4806900D02*
X46071428Y-4735471D01*
X46071428Y-4735471D02*
X45999999Y-4592614D01*
X45999999Y-4592614D02*
X45928571Y-4306900D01*
X45928571Y-4306900D02*
X45928571Y-3949757D01*
X45928571Y-3949757D02*
X45999999Y-3664042D01*
X45999999Y-3664042D02*
X46071428Y-3521185D01*
X46071428Y-3521185D02*
X46142857Y-3449757D01*
X46142857Y-3449757D02*
X46285714Y-3378328D01*
X48571427Y-4878328D02*
X48571427Y-3878328D01*
X48571427Y-4021185D02*
X48642856Y-3949757D01*
X48642856Y-3949757D02*
X48785713Y-3878328D01*
X48785713Y-3878328D02*
X48999999Y-3878328D01*
X48999999Y-3878328D02*
X49142856Y-3949757D01*
X49142856Y-3949757D02*
X49214285Y-4092614D01*
X49214285Y-4092614D02*
X49214285Y-4878328D01*
X49214285Y-4092614D02*
X49285713Y-3949757D01*
X49285713Y-3949757D02*
X49428570Y-3878328D01*
X49428570Y-3878328D02*
X49642856Y-3878328D01*
X49642856Y-3878328D02*
X49785713Y-3949757D01*
X49785713Y-3949757D02*
X49857142Y-4092614D01*
X49857142Y-4092614D02*
X49857142Y-4878328D01*
X50571427Y-4878328D02*
X50571427Y-3878328D01*
X50571427Y-4021185D02*
X50642856Y-3949757D01*
X50642856Y-3949757D02*
X50785713Y-3878328D01*
X50785713Y-3878328D02*
X50999999Y-3878328D01*
X50999999Y-3878328D02*
X51142856Y-3949757D01*
X51142856Y-3949757D02*
X51214285Y-4092614D01*
X51214285Y-4092614D02*
X51214285Y-4878328D01*
X51214285Y-4092614D02*
X51285713Y-3949757D01*
X51285713Y-3949757D02*
X51428570Y-3878328D01*
X51428570Y-3878328D02*
X51642856Y-3878328D01*
X51642856Y-3878328D02*
X51785713Y-3949757D01*
X51785713Y-3949757D02*
X51857142Y-4092614D01*
X51857142Y-4092614D02*
X51857142Y-4878328D01*
D12*
X72500000Y-15000000D02*
X72500000Y-5413580D01*
X17500000Y-15000000D02*
X17500000Y-5413580D01*
X72500000Y-6000000D02*
X17500000Y-6000000D01*
X72500000Y-6000000D02*
X17500000Y-6000000D01*
X72500000Y-6000000D02*
X71373496Y-6586421D01*
X72500000Y-6000000D02*
X71373496Y-5413579D01*
X17500000Y-6000000D02*
X18626504Y-5413579D01*
X17500000Y-6000000D02*
X18626504Y-6586421D01*
D10*
D11*
X82378328Y-59249998D02*
X82378328Y-58249998D01*
X82378328Y-58249998D02*
X83878328Y-58892855D01*
X82378328Y-57821427D02*
X82378328Y-56892855D01*
X82378328Y-56892855D02*
X82949757Y-57392855D01*
X82949757Y-57392855D02*
X82949757Y-57178570D01*
X82949757Y-57178570D02*
X83021185Y-57035713D01*
X83021185Y-57035713D02*
X83092614Y-56964284D01*
X83092614Y-56964284D02*
X83235471Y-56892855D01*
X83235471Y-56892855D02*
X83592614Y-56892855D01*
X83592614Y-56892855D02*
X83735471Y-56964284D01*
X83735471Y-56964284D02*
X83806900Y-57035713D01*
X83806900Y-57035713D02*
X83878328Y-57178570D01*
X83878328Y-57178570D02*
X83878328Y-57607141D01*
X83878328Y-57607141D02*
X83806900Y-57749998D01*
X83806900Y-57749998D02*
X83735471Y-57821427D01*
X83806900Y-56178570D02*
X83878328Y-56178570D01*
X83878328Y-56178570D02*
X84021185Y-56249999D01*
X84021185Y-56249999D02*
X84092614Y-56321427D01*
X82378328Y-54821427D02*
X82378328Y-55535713D01*
X82378328Y-55535713D02*
X83092614Y-55607141D01*
X83092614Y-55607141D02*
X83021185Y-55535713D01*
X83021185Y-55535713D02*
X82949757Y-55392856D01*
X82949757Y-55392856D02*
X82949757Y-55035713D01*
X82949757Y-55035713D02*
X83021185Y-54892856D01*
X83021185Y-54892856D02*
X83092614Y-54821427D01*
X83092614Y-54821427D02*
X83235471Y-54749998D01*
X83235471Y-54749998D02*
X83592614Y-54749998D01*
X83592614Y-54749998D02*
X83735471Y-54821427D01*
X83735471Y-54821427D02*
X83806900Y-54892856D01*
X83806900Y-54892856D02*
X83878328Y-55035713D01*
X83878328Y-55035713D02*
X83878328Y-55392856D01*
X83878328Y-55392856D02*
X83806900Y-55535713D01*
X83806900Y-55535713D02*
X83735471Y-55607141D01*
X82378328Y-53821427D02*
X82378328Y-53678570D01*
X82378328Y-53678570D02*
X82449757Y-53535713D01*
X82449757Y-53535713D02*
X82521185Y-53464285D01*
X82521185Y-53464285D02*
X82664042Y-53392856D01*
X82664042Y-53392856D02*
X82949757Y-53321427D01*
X82949757Y-53321427D02*
X83306900Y-53321427D01*
X83306900Y-53321427D02*
X83592614Y-53392856D01*
X83592614Y-53392856D02*
X83735471Y-53464285D01*
X83735471Y-53464285D02*
X83806900Y-53535713D01*
X83806900Y-53535713D02*
X83878328Y-53678570D01*
X83878328Y-53678570D02*
X83878328Y-53821427D01*
X83878328Y-53821427D02*
X83806900Y-53964285D01*
X83806900Y-53964285D02*
X83735471Y-54035713D01*
X83735471Y-54035713D02*
X83592614Y-54107142D01*
X83592614Y-54107142D02*
X83306900Y-54178570D01*
X83306900Y-54178570D02*
X82949757Y-54178570D01*
X82949757Y-54178570D02*
X82664042Y-54107142D01*
X82664042Y-54107142D02*
X82521185Y-54035713D01*
X82521185Y-54035713D02*
X82449757Y-53964285D01*
X82449757Y-53964285D02*
X82378328Y-53821427D01*
X82378328Y-52392856D02*
X82378328Y-52249999D01*
X82378328Y-52249999D02*
X82449757Y-52107142D01*
X82449757Y-52107142D02*
X82521185Y-52035714D01*
X82521185Y-52035714D02*
X82664042Y-51964285D01*
X82664042Y-51964285D02*
X82949757Y-51892856D01*
X82949757Y-51892856D02*
X83306900Y-51892856D01*
X83306900Y-51892856D02*
X83592614Y-51964285D01*
X83592614Y-51964285D02*
X83735471Y-52035714D01*
X83735471Y-52035714D02*
X83806900Y-52107142D01*
X83806900Y-52107142D02*
X83878328Y-52249999D01*
X83878328Y-52249999D02*
X83878328Y-52392856D01*
X83878328Y-52392856D02*
X83806900Y-52535714D01*
X83806900Y-52535714D02*
X83735471Y-52607142D01*
X83735471Y-52607142D02*
X83592614Y-52678571D01*
X83592614Y-52678571D02*
X83306900Y-52749999D01*
X83306900Y-52749999D02*
X82949757Y-52749999D01*
X82949757Y-52749999D02*
X82664042Y-52678571D01*
X82664042Y-52678571D02*
X82521185Y-52607142D01*
X82521185Y-52607142D02*
X82449757Y-52535714D01*
X82449757Y-52535714D02*
X82378328Y-52392856D01*
X82378328Y-50964285D02*
X82378328Y-50821428D01*
X82378328Y-50821428D02*
X82449757Y-50678571D01*
X82449757Y-50678571D02*
X82521185Y-50607143D01*
X82521185Y-50607143D02*
X82664042Y-50535714D01*
X82664042Y-50535714D02*
X82949757Y-50464285D01*
X82949757Y-50464285D02*
X83306900Y-50464285D01*
X83306900Y-50464285D02*
X83592614Y-50535714D01*
X83592614Y-50535714D02*
X83735471Y-50607143D01*
X83735471Y-50607143D02*
X83806900Y-50678571D01*
X83806900Y-50678571D02*
X83878328Y-50821428D01*
X83878328Y-50821428D02*
X83878328Y-50964285D01*
X83878328Y-50964285D02*
X83806900Y-51107143D01*
X83806900Y-51107143D02*
X83735471Y-51178571D01*
X83735471Y-51178571D02*
X83592614Y-51250000D01*
X83592614Y-51250000D02*
X83306900Y-51321428D01*
X83306900Y-51321428D02*
X82949757Y-51321428D01*
X82949757Y-51321428D02*
X82664042Y-51250000D01*
X82664042Y-51250000D02*
X82521185Y-51178571D01*
X82521185Y-51178571D02*
X82449757Y-51107143D01*
X82449757Y-51107143D02*
X82378328Y-50964285D01*
X83878328Y-48678572D02*
X82878328Y-48678572D01*
X83021185Y-48678572D02*
X82949757Y-48607143D01*
X82949757Y-48607143D02*
X82878328Y-48464286D01*
X82878328Y-48464286D02*
X82878328Y-48250000D01*
X82878328Y-48250000D02*
X82949757Y-48107143D01*
X82949757Y-48107143D02*
X83092614Y-48035715D01*
X83092614Y-48035715D02*
X83878328Y-48035715D01*
X83092614Y-48035715D02*
X82949757Y-47964286D01*
X82949757Y-47964286D02*
X82878328Y-47821429D01*
X82878328Y-47821429D02*
X82878328Y-47607143D01*
X82878328Y-47607143D02*
X82949757Y-47464286D01*
X82949757Y-47464286D02*
X83092614Y-47392857D01*
X83092614Y-47392857D02*
X83878328Y-47392857D01*
X83878328Y-46678572D02*
X82878328Y-46678572D01*
X83021185Y-46678572D02*
X82949757Y-46607143D01*
X82949757Y-46607143D02*
X82878328Y-46464286D01*
X82878328Y-46464286D02*
X82878328Y-46250000D01*
X82878328Y-46250000D02*
X82949757Y-46107143D01*
X82949757Y-46107143D02*
X83092614Y-46035715D01*
X83092614Y-46035715D02*
X83878328Y-46035715D01*
X83092614Y-46035715D02*
X82949757Y-45964286D01*
X82949757Y-45964286D02*
X82878328Y-45821429D01*
X82878328Y-45821429D02*
X82878328Y-45607143D01*
X82878328Y-45607143D02*
X82949757Y-45464286D01*
X82949757Y-45464286D02*
X83092614Y-45392857D01*
X83092614Y-45392857D02*
X83878328Y-45392857D01*
D12*
X73000000Y-89000000D02*
X85586420Y-89000000D01*
X73000000Y-15500000D02*
X85586420Y-15500000D01*
X85000000Y-89000000D02*
X85000000Y-15500000D01*
X85000000Y-89000000D02*
X85000000Y-15500000D01*
X85000000Y-89000000D02*
X84413579Y-87873496D01*
X85000000Y-89000000D02*
X85586421Y-87873496D01*
X85000000Y-15500000D02*
X85586421Y-16626504D01*
X85000000Y-15500000D02*
X84413579Y-16626504D01*
D13*
%TO.P,PSU1,1,Pin_1*%
%TO.N,/+5V*%
X25460000Y-80500000D03*
D14*
%TO.P,PSU1,2,Pin_2*%
%TO.N,/GND*%
X28000000Y-80500000D03*
%TD*%
D15*
%TO.P,GYRO1,1,Pin_1*%
%TO.N,/+3V3*%
X20380000Y-20000000D03*
D16*
%TO.P,GYRO1,2,Pin_2*%
%TO.N,/GND*%
X22920000Y-20000000D03*
%TO.P,GYRO1,3,Pin_3*%
%TO.N,unconnected-(GYRO1-Pin_3-Pad3)*%
X25460000Y-20000000D03*
%TO.P,GYRO1,4,Pin_4*%
%TO.N,/SDA*%
X28000000Y-20000000D03*
%TO.P,GYRO1,5,Pin_5*%
%TO.N,unconnected-(GYRO1-Pin_5-Pad5)*%
X30540000Y-20000000D03*
%TO.P,GYRO1,6,Pin_6*%
%TO.N,unconnected-(GYRO1-Pin_6-Pad6)*%
X33080000Y-20000000D03*
%TO.P,GYRO1,7,Pin_7*%
%TO.N,unconnected-(GYRO1-Pin_7-Pad7)*%
X35620000Y-20000000D03*
%TO.P,GYRO1,8,Pin_8*%
%TO.N,unconnected-(GYRO1-Pin_8-Pad8)*%
X38160000Y-20000000D03*
%TO.P,GYRO1,9,Pin_9*%
%TO.N,unconnected-(GYRO1-Pin_9-Pad9)*%
X40700000Y-20000000D03*
%TO.P,GYRO1,10,Pin_10*%
%TO.N,/+3V3*%
X43240000Y-20000000D03*
%TD*%
D15*
%TO.P,J8,1,Pin_1*%
%TO.N,/SERVO*%
X63040000Y-78500000D03*
D16*
%TO.P,J8,2,Pin_2*%
%TO.N,/+5V*%
X60500000Y-78500000D03*
%TO.P,J8,3,Pin_3*%
%TO.N,/GND*%
X57960000Y-78500000D03*
%TD*%
D15*
%TO.P,J2,1,Pin_1*%
%TO.N,/GND*%
X60000000Y-26320000D03*
D16*
%TO.P,J2,2,Pin_2*%
%TO.N,Net-(J2-Pin_2)*%
X60000000Y-28860000D03*
%TO.P,J2,3,Pin_3*%
%TO.N,Net-(J2-Pin_3)*%
X60000000Y-31400000D03*
%TO.P,J2,4,Pin_4*%
%TO.N,Net-(J2-Pin_4)*%
X60000000Y-33940000D03*
%TO.P,J2,5,Pin_5*%
%TO.N,Net-(J2-Pin_5)*%
X60000000Y-36480000D03*
%TO.P,J2,6,Pin_6*%
%TO.N,/LIDAR_PWM*%
X60000000Y-39020000D03*
%TO.P,J2,7,Pin_7*%
%TO.N,/GND*%
X60000000Y-41560000D03*
%TO.P,J2,8,Pin_8*%
%TO.N,Net-(J2-Pin_8)*%
X60000000Y-44100000D03*
%TO.P,J2,9,Pin_9*%
%TO.N,Net-(J2-Pin_9)*%
X60000000Y-46640000D03*
%TO.P,J2,10,Pin_10*%
%TO.N,Net-(J2-Pin_10)*%
X60000000Y-49180000D03*
%TO.P,J2,11,Pin_11*%
%TO.N,/SDA*%
X60000000Y-51720000D03*
%TO.P,J2,12,Pin_12*%
%TO.N,/MOT2*%
X60000000Y-54260000D03*
%TO.P,J2,13,Pin_13*%
%TO.N,Net-(J2-Pin_13)*%
X60000000Y-56800000D03*
%TO.P,J2,14,Pin_14*%
%TO.N,Net-(J2-Pin_14)*%
X60000000Y-59340000D03*
%TO.P,J2,15,Pin_15*%
%TO.N,Net-(J2-Pin_15)*%
X60000000Y-61880000D03*
%TO.P,J2,16,Pin_16*%
%TO.N,Net-(J2-Pin_16)*%
X60000000Y-64420000D03*
%TO.P,J2,17,Pin_17*%
%TO.N,Net-(J2-Pin_17)*%
X60000000Y-66960000D03*
%TO.P,J2,18,Pin_18*%
%TO.N,Net-(J2-Pin_18)*%
X60000000Y-69500000D03*
%TO.P,J2,19,Pin_19*%
%TO.N,Net-(J2-Pin_19)*%
X60000000Y-72040000D03*
%TD*%
D15*
%TO.P,J5,1,Pin_1*%
%TO.N,/PI_PIN1*%
X22000000Y-53500000D03*
D16*
%TO.P,J5,2,Pin_2*%
%TO.N,/PI_PIN2*%
X22000000Y-56040000D03*
%TD*%
D15*
%TO.P,J4,1,Pin_1*%
%TO.N,/GND*%
X67500000Y-26320000D03*
D16*
%TO.P,J4,2,Pin_2*%
%TO.N,Net-(J2-Pin_2)*%
X67500000Y-28860000D03*
%TO.P,J4,3,Pin_3*%
%TO.N,Net-(J2-Pin_3)*%
X67500000Y-31400000D03*
%TO.P,J4,4,Pin_4*%
%TO.N,Net-(J2-Pin_4)*%
X67500000Y-33940000D03*
%TO.P,J4,5,Pin_5*%
%TO.N,Net-(J2-Pin_5)*%
X67500000Y-36480000D03*
%TO.P,J4,6,Pin_6*%
%TO.N,/LIDAR_PWM*%
X67500000Y-39020000D03*
%TO.P,J4,7,Pin_7*%
%TO.N,/GND*%
X67500000Y-41560000D03*
%TO.P,J4,8,Pin_8*%
%TO.N,Net-(J2-Pin_8)*%
X67500000Y-44100000D03*
%TO.P,J4,9,Pin_9*%
%TO.N,Net-(J2-Pin_9)*%
X67500000Y-46640000D03*
%TO.P,J4,10,Pin_10*%
%TO.N,Net-(J2-Pin_10)*%
X67500000Y-49180000D03*
%TO.P,J4,11,Pin_11*%
%TO.N,/SDA*%
X67500000Y-51720000D03*
%TO.P,J4,12,Pin_12*%
%TO.N,/MOT2*%
X67500000Y-54260000D03*
%TO.P,J4,13,Pin_13*%
%TO.N,Net-(J2-Pin_13)*%
X67500000Y-56800000D03*
%TO.P,J4,14,Pin_14*%
%TO.N,Net-(J2-Pin_14)*%
X67500000Y-59340000D03*
%TO.P,J4,15,Pin_15*%
%TO.N,Net-(J2-Pin_15)*%
X67500000Y-61880000D03*
%TO.P,J4,16,Pin_16*%
%TO.N,Net-(J2-Pin_16)*%
X67500000Y-64420000D03*
%TO.P,J4,17,Pin_17*%
%TO.N,Net-(J2-Pin_17)*%
X67500000Y-66960000D03*
%TO.P,J4,18,Pin_18*%
%TO.N,Net-(J2-Pin_18)*%
X67500000Y-69500000D03*
%TO.P,J4,19,Pin_19*%
%TO.N,Net-(J2-Pin_19)*%
X67500000Y-72040000D03*
%TD*%
D15*
%TO.P,J3,1,Pin_1*%
%TO.N,/+3V3*%
X29640000Y-26320000D03*
D16*
%TO.P,J3,2,Pin_2*%
%TO.N,/ENC1*%
X29640000Y-28860000D03*
%TO.P,J3,3,Pin_3*%
%TO.N,/ENC2*%
X29640000Y-31400000D03*
%TO.P,J3,4,Pin_4*%
%TO.N,Net-(J1-Pin_4)*%
X29640000Y-33940000D03*
%TO.P,J3,5,Pin_5*%
%TO.N,Net-(J1-Pin_5)*%
X29640000Y-36480000D03*
%TO.P,J3,6,Pin_6*%
%TO.N,Net-(J1-Pin_6)*%
X29640000Y-39020000D03*
%TO.P,J3,7,Pin_7*%
%TO.N,Net-(J1-Pin_7)*%
X29640000Y-41560000D03*
%TO.P,J3,8,Pin_8*%
%TO.N,Net-(J1-Pin_8)*%
X29640000Y-44100000D03*
%TO.P,J3,9,Pin_9*%
%TO.N,/PI_PIN1*%
X29640000Y-46640000D03*
%TO.P,J3,10,Pin_10*%
%TO.N,/PI_PIN2*%
X29640000Y-49180000D03*
%TO.P,J3,11,Pin_11*%
%TO.N,/SERVO*%
X29640000Y-51720000D03*
%TO.P,J3,12,Pin_12*%
%TO.N,Net-(J1-Pin_12)*%
X29640000Y-54260000D03*
%TO.P,J3,13,Pin_13*%
%TO.N,Net-(J1-Pin_13)*%
X29640000Y-56800000D03*
%TO.P,J3,14,Pin_14*%
%TO.N,/GND*%
X29640000Y-59340000D03*
%TO.P,J3,15,Pin_15*%
%TO.N,/MOT1*%
X29640000Y-61880000D03*
%TO.P,J3,16,Pin_16*%
%TO.N,Net-(J1-Pin_16)*%
X29640000Y-64420000D03*
%TO.P,J3,17,Pin_17*%
%TO.N,Net-(J1-Pin_17)*%
X29640000Y-66960000D03*
%TO.P,J3,18,Pin_18*%
%TO.N,Net-(J1-Pin_18)*%
X29640000Y-69500000D03*
%TO.P,J3,19,Pin_19*%
%TO.N,/+5V*%
X29640000Y-72040000D03*
%TD*%
D15*
%TO.P,J6,1,Pin_1*%
%TO.N,/MOT1*%
X49500000Y-20000000D03*
D16*
%TO.P,J6,2,Pin_2*%
%TO.N,/MOT2*%
X52040000Y-20000000D03*
%TD*%
D15*
%TO.P,J1,1,Pin_1*%
%TO.N,/+3V3*%
X37140000Y-26320000D03*
D16*
%TO.P,J1,2,Pin_2*%
%TO.N,/ENC1*%
X37140000Y-28860000D03*
%TO.P,J1,3,Pin_3*%
%TO.N,/ENC2*%
X37140000Y-31400000D03*
%TO.P,J1,4,Pin_4*%
%TO.N,Net-(J1-Pin_4)*%
X37140000Y-33940000D03*
%TO.P,J1,5,Pin_5*%
%TO.N,Net-(J1-Pin_5)*%
X37140000Y-36480000D03*
%TO.P,J1,6,Pin_6*%
%TO.N,Net-(J1-Pin_6)*%
X37140000Y-39020000D03*
%TO.P,J1,7,Pin_7*%
%TO.N,Net-(J1-Pin_7)*%
X37140000Y-41560000D03*
%TO.P,J1,8,Pin_8*%
%TO.N,Net-(J1-Pin_8)*%
X37140000Y-44100000D03*
%TO.P,J1,9,Pin_9*%
%TO.N,/PI_PIN1*%
X37140000Y-46640000D03*
%TO.P,J1,10,Pin_10*%
%TO.N,/PI_PIN2*%
X37140000Y-49180000D03*
%TO.P,J1,11,Pin_11*%
%TO.N,/SERVO*%
X37140000Y-51720000D03*
%TO.P,J1,12,Pin_12*%
%TO.N,Net-(J1-Pin_12)*%
X37140000Y-54260000D03*
%TO.P,J1,13,Pin_13*%
%TO.N,Net-(J1-Pin_13)*%
X37140000Y-56800000D03*
%TO.P,J1,14,Pin_14*%
%TO.N,/GND*%
X37140000Y-59340000D03*
%TO.P,J1,15,Pin_15*%
%TO.N,/MOT1*%
X37140000Y-61880000D03*
%TO.P,J1,16,Pin_16*%
%TO.N,Net-(J1-Pin_16)*%
X37140000Y-64420000D03*
%TO.P,J1,17,Pin_17*%
%TO.N,Net-(J1-Pin_17)*%
X37140000Y-66960000D03*
%TO.P,J1,18,Pin_18*%
%TO.N,Net-(J1-Pin_18)*%
X37140000Y-69500000D03*
%TO.P,J1,19,Pin_19*%
%TO.N,/+5V*%
X37140000Y-72040000D03*
%TD*%
D15*
%TO.P,J7,1,Pin_1*%
%TO.N,/GND*%
X52040000Y-78500000D03*
D16*
%TO.P,J7,2,Pin_2*%
%TO.N,/ENC2*%
X49500000Y-78500000D03*
%TO.P,J7,3,Pin_3*%
%TO.N,/ENC1*%
X46960000Y-78500000D03*
%TO.P,J7,4,Pin_4*%
%TO.N,/+3V3*%
X44420000Y-78500000D03*
%TD*%
D15*
%TO.P,LIDAR1,1,Pin_1*%
%TO.N,/LIDAR_PWM*%
X35000000Y-78500000D03*
%TD*%
D17*
%TO.N,/+5V*%
X56500000Y-72000000D03*
%TO.N,/GND*%
X40000000Y-41500000D03*
X40000000Y-74500000D03*
X52000000Y-74500000D03*
X40000000Y-27020000D03*
X40000000Y-59500000D03*
%TO.N,/+3V3*%
X44500000Y-25000000D03*
%TO.N,/SDA*%
X41500000Y-51500000D03*
%TO.N,/SERVO*%
X57500000Y-52500000D03*
%TO.N,/ENC2*%
X42500000Y-32000000D03*
X42500000Y-73500000D03*
X49500000Y-73500000D03*
%TO.N,/LIDAR_PWM*%
X53500000Y-39020000D03*
X53500000Y-75500000D03*
%TO.N,/ENC1*%
X43500000Y-72500000D03*
X47000000Y-72500000D03*
X43500000Y-32000000D03*
%TO.N,/MOT2*%
X52000000Y-54000000D03*
%TO.N,/MOT1*%
X45500000Y-61500000D03*
%TD*%
D18*
%TO.N,/+5V*%
X60500000Y-78500000D02*
X56500000Y-74500000D01*
X56500000Y-74500000D02*
X56500000Y-72000000D01*
%TO.N,/GND*%
X52040000Y-75040000D02*
X52040000Y-78500000D01*
X40000000Y-71500000D02*
X40000000Y-74500000D01*
X52000000Y-75000000D02*
X52040000Y-75040000D01*
X40000000Y-41500000D02*
X40000000Y-59500000D01*
X40000000Y-27000000D02*
X40000000Y-27020000D01*
X40000000Y-26480000D02*
X40000000Y-27020000D01*
X37020000Y-23500000D02*
X40000000Y-26480000D01*
X26420000Y-23500000D02*
X22920000Y-20000000D01*
X26420000Y-23500000D02*
X37020000Y-23500000D01*
X57960000Y-78500000D02*
X52040000Y-78500000D01*
X40000000Y-27000000D02*
X40000000Y-41500000D01*
X52000000Y-74500000D02*
X52000000Y-75000000D01*
X40000000Y-59500000D02*
X40000000Y-71500000D01*
D19*
%TO.N,/+3V3*%
X44420000Y-78500000D02*
X44420000Y-75680000D01*
X44500000Y-25000000D02*
X44500000Y-21260000D01*
X44500000Y-21260000D02*
X43240000Y-20000000D01*
X44500000Y-75600000D02*
X44500000Y-25000000D01*
X44420000Y-75680000D02*
X44500000Y-75600000D01*
%TO.N,/SDA*%
X41500000Y-24000000D02*
X41500000Y-51500000D01*
X40000000Y-22500000D02*
X41500000Y-24000000D01*
X30500000Y-22500000D02*
X40000000Y-22500000D01*
X28000000Y-20000000D02*
X30500000Y-22500000D01*
%TO.N,/SERVO*%
X63040000Y-78500000D02*
X58540000Y-74000000D01*
X58000000Y-74000000D02*
X57500000Y-73500000D01*
X58540000Y-74000000D02*
X58000000Y-74000000D01*
X57500000Y-73500000D02*
X57500000Y-52500000D01*
%TO.N,/ENC2*%
X42500000Y-32000000D02*
X42500000Y-72000000D01*
X49500000Y-73500000D02*
X49500000Y-78500000D01*
X42500000Y-72000000D02*
X42500000Y-73500000D01*
%TO.N,/LIDAR_PWM*%
X53500000Y-75500000D02*
X53500000Y-39020000D01*
%TO.N,/ENC1*%
X46960000Y-72540000D02*
X46960000Y-78500000D01*
X43500000Y-32000000D02*
X43500000Y-72500000D01*
X47000000Y-72500000D02*
X46960000Y-72540000D01*
%TO.N,/MOT2*%
X52040000Y-20000000D02*
X52040000Y-53500000D01*
X52000000Y-53540000D02*
X52040000Y-53500000D01*
X52000000Y-54000000D02*
X52000000Y-53540000D01*
%TO.N,/MOT1*%
X45500000Y-24000000D02*
X49500000Y-20000000D01*
X45500000Y-61500000D02*
X45500000Y-24000000D01*
%TD*%
M02*
